<svg width="397" height="319" viewBox="0 0 397 319" fill="none" xmlns="http://www.w3.org/2000/svg">
<path d="M351.535 120.608H351.41L279.92 151.135L182.107 192.902C181.725 193.063 181.315 193.147 180.9 193.149C180.486 193.151 180.075 193.071 179.691 192.914L78.7764 151.048L5.52991 120.658L5.41803 120.608H5.2934C4.13767 120.61 3.02963 121.069 2.2124 121.887C1.39518 122.704 0.935485 123.812 0.934204 124.968V314.28C0.935485 315.435 1.39518 316.543 2.2124 317.361C3.02963 318.178 4.13767 318.637 5.2934 318.639H351.535C352.691 318.637 353.799 318.178 354.616 317.361C355.433 316.543 355.893 315.435 355.894 314.28V124.968C355.893 123.812 355.433 122.704 354.616 121.887C353.799 121.069 352.691 120.61 351.535 120.608V120.608Z" fill="white"/>
<path d="M351.846 121.854C351.719 121.854 351.595 121.815 351.49 121.742L179.267 1.80097C178.743 1.43766 178.12 1.2435 177.482 1.24459C176.845 1.24568 176.222 1.44195 175.7 1.80704L4.71677 121.741C4.5815 121.835 4.41443 121.872 4.25217 121.843C4.08991 121.814 3.94567 121.722 3.85105 121.588C3.75642 121.453 3.71916 121.286 3.74735 121.123C3.77553 120.961 3.86687 120.816 4.00144 120.721L174.984 0.787237C175.717 0.276191 176.588 0.00147358 177.48 5.91145e-06C178.373 -0.00146175 179.245 0.270392 179.979 0.779028L352.202 120.72C352.311 120.796 352.393 120.904 352.436 121.03C352.478 121.155 352.48 121.291 352.44 121.418C352.401 121.544 352.321 121.655 352.215 121.733C352.108 121.812 351.978 121.854 351.846 121.854H351.846Z" fill="#3F3D56"/>
<path d="M14.4871 126.106L177.651 5.18066L342.054 134.71L186.058 227.186L101.366 207.882L14.4871 126.106Z" fill="#E6E6E6"/>
<path d="M108.515 284.305H27.9081C26.9093 284.306 25.9508 283.911 25.2435 283.206C24.5362 282.5 24.1381 281.543 24.1366 280.544C24.1351 279.546 24.5305 278.587 25.2357 277.88C25.9409 277.173 26.8982 276.774 27.897 276.773H108.515C109.514 276.771 110.473 277.167 111.18 277.872C111.887 278.577 112.285 279.535 112.287 280.533C112.288 281.532 111.893 282.491 111.188 283.198C110.483 283.905 109.525 284.303 108.526 284.305H108.515Z" fill="#FF0000"/>
<path d="M56.8281 268.113H27.908C26.9097 268.114 25.9519 267.719 25.2452 267.013C24.5385 266.308 24.1406 265.351 24.1392 264.353C24.1377 263.355 24.5327 262.397 25.2373 261.689C25.942 260.982 26.8986 260.584 27.8969 260.582H56.8281C57.3229 260.58 57.813 260.677 58.2705 260.865C58.728 261.054 59.1438 261.33 59.4943 261.68C59.8448 262.029 60.1231 262.444 60.3132 262.901C60.5033 263.357 60.6015 263.847 60.6022 264.342C60.603 264.837 60.5062 265.327 60.3174 265.784C60.1287 266.241 59.8517 266.657 59.5022 267.007C59.1527 267.358 58.7377 267.636 58.2808 267.825C57.8239 268.015 57.3341 268.113 56.8393 268.113H56.8281Z" fill="#FF0000"/>
<path d="M179.946 193.459C179.333 193.46 178.727 193.341 178.159 193.109L77.5309 151.355V20.659C77.5322 19.5032 77.9919 18.3953 78.8091 17.5781C79.6264 16.7609 80.7343 16.3012 81.89 16.2998H274.939C276.094 16.3012 277.202 16.7609 278.019 17.5781C278.837 18.3953 279.296 19.5032 279.298 20.659V151.446L279.109 151.527L181.787 193.089C181.204 193.334 180.578 193.46 179.946 193.459V193.459Z" fill="white"/>
<path d="M179.946 193.77C179.293 193.771 178.646 193.644 178.041 193.397L77.2195 151.563V20.6588C77.2209 19.4205 77.7134 18.2334 78.589 17.3578C79.4646 16.4822 80.6517 15.9897 81.89 15.9883H274.939C276.177 15.9897 277.364 16.4822 278.24 17.3578C279.115 18.2334 279.608 19.4205 279.609 20.6588V151.652L181.909 193.375C181.288 193.636 180.62 193.771 179.946 193.77V193.77ZM78.4649 150.731L178.516 192.246C179.449 192.624 180.494 192.618 181.423 192.228L278.364 150.83V20.6588C278.362 19.7508 278.001 18.8802 277.359 18.2381C276.717 17.5961 275.847 17.2349 274.939 17.2338H81.89C80.982 17.2349 80.1114 17.5961 79.4694 18.2381C78.8273 18.8802 78.4661 19.7508 78.465 20.6588L78.4649 150.731Z" fill="#3F3D56"/>
<path d="M350.601 120.608H350.476L278.986 151.135L181.173 192.902C180.791 193.063 180.381 193.147 179.966 193.149C179.551 193.151 179.14 193.071 178.757 192.914L77.8422 151.048L4.59576 120.658L4.48383 120.608H4.35913C3.2034 120.61 2.09542 121.069 1.2782 121.887C0.460975 122.704 0.00128108 123.812 0 124.968V314.28C0.00128108 315.435 0.460975 316.543 1.2782 317.361C2.09542 318.178 3.2034 318.637 4.35913 318.639H350.601C351.757 318.637 352.865 318.178 353.682 317.361C354.499 316.543 354.959 315.435 354.96 314.28V124.968C354.959 123.812 354.499 122.704 353.682 121.887C352.865 121.069 351.757 120.61 350.601 120.608V120.608ZM353.715 314.28C353.714 315.105 353.386 315.897 352.802 316.481C352.218 317.065 351.427 317.393 350.601 317.393H4.35913C3.53343 317.393 2.74163 317.065 2.15778 316.481C1.57392 315.897 1.24581 315.105 1.24548 314.28V124.968C1.24661 124.162 1.55889 123.389 2.11713 122.808C2.67536 122.228 3.43629 121.886 4.24084 121.854L77.8422 152.393L178.277 194.066C179.365 194.509 180.583 194.502 181.665 194.048L278.986 152.486L350.726 121.854C351.529 121.889 352.288 122.232 352.844 122.811C353.401 123.391 353.713 124.164 353.715 124.968V314.28Z" fill="#3F3D56"/>
<path d="M164.28 65.1542H95.7789C94.4589 65.1524 93.1936 64.6266 92.2608 63.6926C91.328 62.7585 90.8041 61.4924 90.8041 60.1723C90.8041 58.8523 91.328 57.5862 92.2608 56.6521C93.1936 55.718 94.4589 55.1923 95.7789 55.1904H164.28C165.6 55.1923 166.865 55.718 167.798 56.6521C168.731 57.5862 169.255 58.8523 169.255 60.1723C169.255 61.4924 168.731 62.7585 167.798 63.6926C166.865 64.6266 165.6 65.1524 164.28 65.1542V65.1542Z" fill="#FF0000"/>
<path d="M229.648 114.973H125.028C123.708 114.971 122.443 114.445 121.51 113.511C120.577 112.577 120.053 111.311 120.053 109.991C120.053 108.671 120.577 107.405 121.51 106.471C122.443 105.537 123.708 105.011 125.028 105.009H229.648C230.968 105.011 232.233 105.537 233.166 106.471C234.099 107.405 234.623 108.671 234.623 109.991C234.623 111.311 234.099 112.577 233.166 113.511C232.233 114.445 230.968 114.971 229.648 114.973V114.973Z" fill="#CCCCCC"/>
<path d="M229.648 138.015H125.028C123.707 138.015 122.44 137.49 121.505 136.555C120.571 135.621 120.046 134.354 120.046 133.033C120.046 131.711 120.571 130.444 121.505 129.51C122.44 128.576 123.707 128.051 125.028 128.051H229.648C230.969 128.051 232.236 128.576 233.171 129.51C234.105 130.444 234.63 131.711 234.63 133.033C234.63 134.354 234.105 135.621 233.171 136.555C232.236 137.49 230.969 138.015 229.648 138.015V138.015Z" fill="#CCCCCC"/>
<path d="M348.67 169.785C374.833 169.785 396.041 148.576 396.041 122.413C396.041 96.2509 374.833 75.042 348.67 75.042C322.508 75.042 301.299 96.2509 301.299 122.413C301.299 148.576 322.508 169.785 348.67 169.785Z" fill="#FF0000"/>
<path d="M338.156 140.411L330 133.5L338.936 124.399L361.615 100.458L369.199 107.643L338.156 140.411Z" fill="white"/>
<path d="M369.576 132.42L362.666 140.576L353.564 131.64L329.623 108.961L336.808 101.377L369.576 132.42Z" fill="white"/>
</svg>
