<svg width="1821" height="1621" viewBox="0 0 1821 1621" fill="none" xmlns="http://www.w3.org/2000/svg">
<path d="M709.798 1608.64L1821 991.951L1366.42 0L214.948 579.811L709.798 1608.64Z" fill="#F2F2F2"/>
<path opacity="0.4" d="M1489.29 1260.47C1526.84 1260.47 1557.27 1226.97 1557.27 1185.65C1557.27 1144.33 1526.84 1110.83 1489.29 1110.83C1451.74 1110.83 1421.3 1144.33 1421.3 1185.65C1421.3 1226.97 1451.74 1260.47 1489.29 1260.47Z" fill="#6C63FF"/>
<path opacity="0.4" d="M1363.46 1273.87C1389.8 1273.87 1411.15 1250.37 1411.15 1221.38C1411.15 1192.4 1389.8 1168.9 1363.46 1168.9C1337.12 1168.9 1315.77 1192.4 1315.77 1221.38C1315.77 1250.37 1337.12 1273.87 1363.46 1273.87Z" fill="#6C63FF"/>
<path d="M378.434 1202.1L193.78 1084.78L87.1696 1287.98L271.824 1405.3L378.434 1202.1Z" fill="#F2F2F2"/>
<path d="M1285.85 761.394C1276.38 761.394 1267.13 758.305 1259.26 752.517C1251.39 746.729 1245.25 738.502 1241.63 728.877C1238 719.252 1237.06 708.661 1238.9 698.443C1240.75 688.225 1245.31 678.84 1252 671.473C1258.7 664.106 1267.23 659.09 1276.51 657.057C1285.8 655.025 1295.42 656.068 1304.17 660.055C1312.91 664.041 1320.39 670.793 1325.65 679.455C1330.91 688.117 1333.72 698.301 1333.72 708.719C1333.7 722.685 1328.65 736.073 1319.68 745.948C1310.71 755.823 1298.54 761.378 1285.85 761.394V761.394ZM1285.85 660.834C1277.24 660.834 1268.83 663.642 1261.67 668.904C1254.52 674.166 1248.94 681.644 1245.65 690.394C1242.35 699.144 1241.49 708.773 1243.17 718.062C1244.85 727.35 1248.99 735.883 1255.08 742.58C1261.17 749.277 1268.92 753.838 1277.36 755.685C1285.8 757.533 1294.55 756.585 1302.5 752.96C1310.45 749.336 1317.25 743.198 1322.03 735.323C1326.81 727.449 1329.36 718.19 1329.36 708.719C1329.35 696.024 1324.76 683.852 1316.6 674.875C1308.45 665.897 1297.39 660.848 1285.85 660.834V660.834Z" fill="#3F3D56"/>
<path d="M465.604 610.553C456.137 610.553 446.882 607.464 439.011 601.676C431.139 595.888 425.004 587.662 421.381 578.037C417.759 568.412 416.811 557.821 418.658 547.603C420.505 537.385 425.063 527.999 431.757 520.633C438.452 513.266 446.98 508.249 456.266 506.217C465.551 504.184 475.175 505.227 483.921 509.214C492.667 513.201 500.143 519.952 505.403 528.615C510.662 537.277 513.469 547.461 513.469 557.879C513.455 571.844 508.408 585.233 499.434 595.108C490.461 604.983 478.294 610.538 465.604 610.553V610.553ZM465.604 509.993C456.997 509.993 448.584 512.802 441.428 518.063C434.272 523.325 428.695 530.804 425.402 539.554C422.108 548.304 421.246 557.932 422.925 567.221C424.604 576.51 428.749 585.043 434.834 591.739C440.92 598.436 448.673 602.997 457.114 604.845C465.555 606.692 474.305 605.744 482.256 602.12C490.207 598.495 497.003 592.358 501.785 584.483C506.566 576.608 509.118 567.35 509.118 557.879C509.105 545.183 504.517 533.012 496.359 524.034C488.201 515.057 477.14 510.007 465.604 509.993V509.993Z" fill="#3F3D56"/>
<path d="M276.316 1446.16C266.849 1446.16 257.595 1443.07 249.723 1437.28C241.852 1431.5 235.717 1423.27 232.094 1413.64C228.471 1404.02 227.523 1393.43 229.37 1383.21C231.217 1372.99 235.776 1363.61 242.47 1356.24C249.164 1348.87 257.693 1343.86 266.978 1341.82C276.263 1339.79 285.887 1340.84 294.634 1344.82C303.38 1348.81 310.856 1355.56 316.115 1364.22C321.375 1372.88 324.182 1383.07 324.182 1393.49C324.168 1407.45 319.12 1420.84 310.147 1430.72C301.173 1440.59 289.007 1446.15 276.316 1446.16V1446.16ZM276.316 1345.6C267.71 1345.6 259.297 1348.41 252.141 1353.67C244.985 1358.93 239.408 1366.41 236.114 1375.16C232.821 1383.91 231.959 1393.54 233.638 1402.83C235.317 1412.12 239.461 1420.65 245.547 1427.35C251.633 1434.04 259.386 1438.61 267.827 1440.45C276.268 1442.3 285.017 1441.35 292.968 1437.73C300.92 1434.1 307.716 1427.97 312.497 1420.09C317.279 1412.22 319.831 1402.96 319.831 1393.49C319.818 1380.79 315.229 1368.62 307.071 1359.64C298.914 1350.66 287.853 1345.62 276.316 1345.6V1345.6Z" fill="#3F3D56"/>
<path d="M257.633 613.662L77.648 629.867C70.5647 630.505 63.9222 633.909 58.9203 639.465C53.9183 645.021 50.8868 652.362 50.3732 660.163L43.6528 762.221C43.357 766.713 43.9055 771.223 45.2643 775.471C46.623 779.719 48.7626 783.614 51.5498 786.911C54.3369 790.208 57.7117 792.838 61.4636 794.637C65.2154 796.435 69.2639 797.363 73.3561 797.363H154.476V802.152H187.112V797.363H204.518V802.152H237.153V797.363H254.55C262.185 797.363 269.527 794.137 275.062 788.35C280.597 782.564 283.901 774.659 284.292 766.269L289.804 648.004C290.021 643.34 289.33 638.678 287.777 634.332C286.223 629.985 283.844 626.054 280.797 622.802C277.751 619.55 274.108 617.052 270.113 615.476C266.118 613.9 261.863 613.281 257.633 613.662Z" fill="#2F2E41"/>
<path d="M372.048 936.232L117.489 804.546L71.7987 883.558C71.7987 883.558 204.164 976.547 211.045 984.118C220.835 994.893 326.358 1070.31 367.696 1058.34C409.035 1046.37 389.454 948.204 372.048 936.232Z" fill="#9F616A"/>
<path d="M546.105 1539.59L513.469 1621H851.315L826.773 1534.81L546.105 1539.59Z" fill="#2F2E41"/>
<path d="M752.798 878.769C752.798 878.769 765.853 957.781 752.798 967.358C739.744 976.935 839.827 1094.26 839.827 1094.26L881.166 1053.55L894.22 960.175C894.22 960.175 855.057 900.318 872.463 847.643C889.869 794.969 752.798 878.769 752.798 878.769Z" fill="#9F616A"/>
<path d="M828.949 1039.19C828.949 1039.19 774.556 948.204 744.096 941.021C713.636 933.838 685.351 938.627 667.945 941.021C650.54 943.415 591.795 919.472 556.984 936.232C522.172 952.992 556.984 1149.32 556.984 1149.32C556.984 1149.32 517.821 1400.73 535.227 1465.37C552.632 1530.02 539.578 1541.99 530.875 1549.17C522.172 1556.35 728.866 1621 728.866 1621H924.68C924.68 1621 924.68 1551.57 944.262 1534.81C963.843 1518.05 961.667 1163.69 961.667 1163.69L1026.94 1024.82C1026.94 1024.82 1016.06 972.147 970.37 969.753C924.68 967.358 883.896 940.962 883.896 940.962L852.881 1039.19H828.949Z" fill="#6C63FF"/>
<path d="M576.565 948.204L556.984 936.232C556.984 936.232 519.997 938.626 513.469 936.232C506.942 933.838 424.265 905.106 391.629 921.866C358.993 938.626 337.236 917.078 337.236 917.078C337.236 917.078 443.847 1017.64 313.303 1048.76C313.303 1048.76 315.479 1060.74 348.115 1067.92C380.751 1075.1 387.278 1082.28 400.332 1094.26C413.386 1106.23 439.495 1118.2 456.901 1122.99C474.307 1127.78 530.875 1168.48 539.578 1158.9C548.281 1149.32 563.511 1115.8 563.511 1115.8L576.565 948.204Z" fill="#6C63FF"/>
<path d="M985.6 998.484L1026.94 1024.82C1026.94 1024.82 1081.33 1202 1072.63 1245.1C1063.93 1288.19 1055.22 1281.01 1068.28 1309.74C1081.33 1338.47 1094.39 1340.87 1085.68 1367.21C1076.98 1393.54 1081.33 1458.19 1068.28 1484.53C1055.22 1510.86 992.127 1594.66 937.734 1453.4C883.342 1312.14 985.6 998.484 985.6 998.484Z" fill="#6C63FF"/>
<path d="M1063.93 1364.81C1063.93 1364.81 1033.47 1297.77 1026.94 1292.98C1020.41 1288.19 989.952 1122.99 989.952 1122.99C989.952 1122.99 1037.82 1036.79 994.303 998.484C994.303 998.484 1074.8 873.981 1048.7 876.375C1022.59 878.769 970.37 969.753 970.37 969.753C970.37 969.753 958.404 966.161 962.755 947.007C967.107 927.852 983.425 859.615 970.37 857.221C957.316 854.827 931.207 957.781 931.207 957.781C931.207 957.781 877.902 1064.33 894.22 1101.44C903.713 1122.27 914.623 1142.28 926.856 1161.3L963.843 1458.19C963.843 1458.19 1035.64 1553.96 1063.93 1364.81Z" fill="#9F616A"/>
<path d="M243.68 658.494C256.898 658.494 267.613 653.134 267.613 646.523C267.613 639.911 256.898 634.551 243.68 634.551C230.463 634.551 219.747 639.911 219.747 646.523C219.747 653.134 230.463 658.494 243.68 658.494Z" fill="#6C63FF"/>
<path d="M97.9073 883.558H67.4473C67.4473 883.558 0 859.615 0 804.546C0 749.477 19.5815 636.946 80.5016 639.34C141.422 641.734 84.853 790.18 84.853 790.18L121.732 806.741L121.84 857.221L97.9073 883.558Z" fill="#9F616A"/>
<path d="M783.5 917C859.991 917 922 852.753 922 773.5C922 694.247 859.991 630 783.5 630C707.009 630 645 694.247 645 773.5C645 852.753 707.009 917 783.5 917Z" fill="#9F616A"/>
<path d="M660.171 649.88C660.171 649.88 703.602 569.164 786.844 587.791C870.087 606.418 917.137 634.358 920.756 662.298C924.375 690.239 918.946 732.149 918.946 732.149C918.946 732.149 909.898 674.716 851.991 687.134C794.083 699.552 703.602 690.239 703.602 690.239L689.125 802C689.125 802 672.839 781.821 654.742 794.239C636.646 806.657 602.264 674.716 660.171 649.88Z" fill="#2F2E41"/>
</svg>
