<svg width="64" height="71" viewBox="0 0 64 71" fill="none" xmlns="http://www.w3.org/2000/svg">
<path d="M29.7253 70.6514C46.1179 70.6322 60.2396 54.9633 61.2671 35.6541C62.2946 16.3448 49.8388 0.707079 33.4462 0.726296C17.0537 0.745514 2.93194 16.4144 1.90444 35.7236C0.876945 55.0329 13.3328 70.6706 29.7253 70.6514Z" fill="#00AF00"/>
<path d="M43.7454 31.5927C44.533 27.2169 41.8302 24.8682 38.0468 23.3036L39.6167 17.3754L36.601 16.4799L35.0726 22.2518C34.2809 22.0165 33.4658 21.7944 32.6559 21.5745L34.195 15.7645L31.1819 14.8689L29.6113 20.7951C28.9544 20.617 28.3096 20.4411 27.6844 20.2558L27.6889 20.2373L23.5313 18.9999L22.5115 22.854C22.5115 22.854 24.7512 23.4649 24.7012 23.5029C25.1218 23.5622 25.4953 23.8151 25.7413 24.2072C25.9873 24.5992 26.0861 25.0992 26.0166 25.5995L24.2284 32.3529C24.3349 32.3846 24.4392 32.4246 24.5404 32.4728L24.2226 32.3786L21.7155 41.8392C21.6627 42.0044 21.5832 42.1577 21.4817 42.2903C21.3801 42.423 21.2585 42.5323 21.1239 42.6121C20.9892 42.6919 20.8441 42.7405 20.697 42.7552C20.5498 42.77 20.4034 42.7504 20.2663 42.6978C20.2941 42.7502 18.075 42.0459 18.075 42.0459L16.3348 46.1782L20.2589 47.344C20.9887 47.562 21.7032 47.7903 22.4061 48.0052L20.8195 54.0023L23.8308 54.8978L25.4026 48.9655C26.2232 49.2317 27.0213 49.4774 27.8028 49.7087L26.2377 55.6132L29.2525 56.5088L30.8384 50.5241C35.9989 51.6822 39.9519 51.2081 41.8993 45.6432C43.4698 41.1617 42.2099 38.5791 39.5519 36.8961C41.582 36.3482 43.1719 34.7959 43.7445 31.5927L43.7454 31.5927ZM36.1316 43.1594C34.9458 47.6404 28.6719 45.227 26.6273 44.6211L28.7319 36.6775C30.7755 37.2854 37.3677 38.4861 36.1325 43.1594L36.1316 43.1594ZM37.6967 31.535C36.6162 35.6111 31.3967 33.5468 29.6939 33.0412L31.6021 25.8365C33.3048 26.3421 38.8232 27.2831 37.6967 31.535V31.535Z" fill="white"/>
</svg>
