<svg width="61" height="71" viewBox="0 0 61 71" fill="none" xmlns="http://www.w3.org/2000/svg">
<path d="M30.6641 70.476C47.0741 70.476 60.3771 54.7855 60.3771 35.4303C60.3771 16.0751 47.0741 0.384583 30.6641 0.384583C14.2541 0.384583 0.951172 16.0751 0.951172 35.4303C0.951172 54.7855 14.2541 70.476 30.6641 70.476Z" fill="#F9A100"/>
<path d="M42.6192 31.3398C43.1746 26.9542 40.3435 24.5966 36.4725 23.0239L37.7283 17.0831L34.6614 16.1818L33.4389 21.9661C32.6338 21.7292 31.8059 21.5057 30.9834 21.2843L32.2146 15.4619L29.1504 14.5607L27.8938 20.4994C27.2267 20.3202 26.5718 20.1431 25.936 19.9566L25.9396 19.9381L21.7113 18.6929L20.8957 22.5552C20.8957 22.5552 23.1705 23.1701 23.1225 23.2082C23.5468 23.2681 23.9341 23.5221 24.2013 23.9154C24.4684 24.3087 24.5941 24.81 24.5511 25.3114L23.1207 32.0793C23.2291 32.1111 23.3356 32.1514 23.4395 32.1998L23.1164 32.105L21.1105 41.5858C21.0665 41.7513 20.9951 41.9049 20.9005 42.0377C20.8059 42.1706 20.69 42.28 20.5594 42.3599C20.4289 42.4397 20.2862 42.4883 20.1397 42.5029C19.9931 42.5175 19.8456 42.4977 19.7055 42.4448C19.7361 42.4973 17.477 41.7887 17.477 41.7887L15.955 45.9292L19.9456 47.1023C20.6879 47.3217 21.4153 47.5514 22.1305 47.7677L20.8617 53.7775L23.9241 54.6787L25.1816 48.7338C26.0173 49.0016 26.8294 49.2488 27.624 49.4815L26.3718 55.3986L29.4377 56.2999L30.7065 50.3024C35.9346 51.4693 39.8668 50.9986 41.5198 45.4224C42.8533 40.9318 41.4543 38.3414 38.7036 36.6513C40.7068 36.1044 42.2158 34.5502 42.6183 31.3398L42.6192 31.3398ZM35.6132 42.9258C34.6649 47.4165 28.2553 44.9899 26.1762 44.3801L27.8598 36.4196C29.9381 37.0314 36.6017 38.2426 35.6141 42.9258H35.6132ZM36.5607 31.2749C35.6962 35.3597 30.3607 33.2843 28.6291 32.7756L30.1555 25.5555C31.8871 26.0643 37.4619 27.0139 36.5607 31.2749Z" fill="white"/>
</svg>
