<svg width="60" height="71" viewBox="0 0 60 71" fill="none" xmlns="http://www.w3.org/2000/svg">
<path d="M30.0868 70.4186C46.4968 70.4186 59.7998 54.7281 59.7998 35.3729C59.7998 16.0177 46.4968 0.327209 30.0868 0.327209C13.6768 0.327209 0.373901 16.0177 0.373901 35.3729C0.373901 54.7281 13.6768 70.4186 30.0868 70.4186Z" fill="#3F3D56"/>
<path d="M41.4347 19.6944H46.0775L36.4169 30.9708C34.7293 32.9328 32.4548 34.0326 30.0852 34.0326C27.7156 34.0326 25.4412 32.9328 23.7536 30.9708L14.0942 19.6944H18.737L26.0756 28.2607C27.1444 29.5034 28.585 30.2001 30.0859 30.2001C31.5867 30.2001 33.0273 29.5034 34.0962 28.2607L41.4347 19.6944ZM18.678 51.0512H14.0352L23.7549 39.7052C25.4425 37.7432 27.7169 36.6434 30.0865 36.6434C32.4562 36.6434 34.7306 37.7432 36.4182 39.7052L46.1379 51.0512H41.4951L34.0962 42.4152C33.0273 41.1725 31.5868 40.4759 30.0859 40.4759C28.585 40.4759 27.1445 41.1725 26.0756 42.4152L18.678 51.0512Z" fill="white"/>
</svg>
