<svg width="1400" height="667" viewBox="0 0 1400 667" fill="none" xmlns="http://www.w3.org/2000/svg">
<path d="M0 1H1400V666H0V1Z" fill="#1D1C98"/>
<path d="M912.5 227L436 591.5H1400V227H912.5Z" fill="#1D1C98"/>
<path d="M912.5 227L436 591.5H1400V227H912.5Z" fill="url(#paint0_linear)" fill-opacity="0.6"/>
<path d="M912.5 301L436 665.5H1400V301H912.5Z" fill="#1D1C98"/>
<path d="M912.5 301L436 665.5H1400V301H912.5Z" fill="url(#paint1_linear)" fill-opacity="0.6"/>
<path d="M689.5 1H183V666.5L689.5 291V1Z" fill="#1D1C98"/>
<path d="M689.5 1H183V666.5L689.5 291V1Z" fill="url(#paint2_linear)" fill-opacity="0.5"/>
<path d="M510 0H3.5V665.5L510 290V0Z" fill="#1D1C98"/>
<path d="M510 0H3.5V665.5L510 290V0Z" fill="url(#paint3_linear)" fill-opacity="0.6"/>
<path d="M155.427 189.021H153.374V293.296H155.427V189.021Z" fill="#3F3D56"/>
<path d="M155.427 324.335H153.374V416.087H155.427V324.335Z" fill="#3F3D56"/>
<path d="M309.414 430.705H150.294V432.654H309.414V430.705Z" fill="#3F3D56"/>
<path d="M84.5927 457.018H82.5396V539.853H84.5927V457.018Z" fill="#3F3D56"/>
<path d="M342.264 554.471H101.018V556.42H342.264V554.471Z" fill="#3F3D56"/>
<path d="M543.474 122.752H541.421V221.18H543.474V122.752Z" fill="#3F3D56"/>
<path d="M526.022 236.773H375.08V238.722H526.022V236.773Z" fill="#3F3D56"/>
<path d="M359.716 252.365H357.663V383.928H359.716V252.365Z" fill="#3F3D56"/>
<path d="M154.4 325.455C150.949 325.455 147.574 324.483 144.705 322.663C141.835 320.843 139.598 318.255 138.277 315.228C136.956 312.201 136.61 308.87 137.284 305.656C137.957 302.442 139.619 299.49 142.06 297.173C144.501 294.856 147.61 293.279 150.996 292.639C154.381 292 157.89 292.328 161.079 293.582C164.268 294.836 166.993 296.959 168.911 299.684C170.829 302.408 171.852 305.611 171.852 308.888C171.847 313.28 170.007 317.491 166.735 320.597C163.463 323.703 159.027 325.45 154.4 325.455V325.455ZM154.4 294.27C151.355 294.27 148.377 295.127 145.845 296.734C143.313 298.34 141.339 300.623 140.174 303.294C139.008 305.965 138.703 308.904 139.297 311.74C139.892 314.575 141.358 317.18 143.512 319.225C145.665 321.269 148.409 322.661 151.396 323.225C154.383 323.789 157.479 323.5 160.293 322.393C163.107 321.287 165.512 319.413 167.204 317.009C168.896 314.605 169.799 311.779 169.799 308.888C169.794 305.012 168.171 301.297 165.284 298.556C162.397 295.816 158.483 294.274 154.4 294.27V294.27Z" fill="#3F3D56"/>
<path d="M84.593 572.013C81.1413 572.013 77.7672 571.041 74.8973 569.221C72.0273 567.4 69.7905 564.813 68.4696 561.786C67.1487 558.758 66.8031 555.427 67.4765 552.214C68.1498 549 69.812 546.048 72.2527 543.731C74.6934 541.414 77.803 539.836 81.1883 539.197C84.5736 538.558 88.0826 538.886 91.2715 540.14C94.4604 541.394 97.186 543.517 99.1037 546.242C101.021 548.966 102.045 552.169 102.045 555.446C102.04 559.838 100.199 564.049 96.9276 567.155C93.6559 570.261 89.2199 572.008 84.593 572.013V572.013ZM84.593 540.828C81.5474 540.828 78.5702 541.685 76.0379 543.291C73.5056 544.898 71.5319 547.181 70.3664 549.852C69.2009 552.523 68.896 555.462 69.4902 558.298C70.0843 561.133 71.5509 563.738 73.7044 565.782C75.858 567.827 78.6018 569.219 81.5889 569.783C84.5759 570.347 87.6721 570.057 90.4858 568.951C93.2995 567.845 95.7045 565.971 97.3965 563.567C99.0886 561.163 99.9917 558.337 99.9917 555.446C99.9871 551.57 98.3633 547.854 95.4765 545.114C92.5897 542.374 88.6756 540.832 84.593 540.828V540.828Z" fill="#3F3D56"/>
<path d="M749.816 307.914H579.404V309.863H749.816V307.914Z" fill="#3F3D56"/>
<path d="M564.006 324.335H561.953V416.087H564.006V324.335Z" fill="#3F3D56"/>
<path d="M545.527 430.705H408.992V432.654H545.527V430.705Z" fill="#3F3D56"/>
<path d="M790.88 439.476H649.212V441.425H790.88V439.476Z" fill="#3F3D56"/>
<path d="M634.84 457.018H632.787V539.853H634.84V457.018Z" fill="#3F3D56"/>
<path d="M616.361 554.471H375.115V556.42H616.361V554.471Z" fill="#3F3D56"/>
<path d="M359.716 479.432H357.663V539.853H359.716V479.432Z" fill="#3F3D56"/>
<path d="M562.979 324.481C572.05 324.481 579.404 317.5 579.404 308.888C579.404 300.277 572.05 293.296 562.979 293.296C553.907 293.296 546.553 300.277 546.553 308.888C546.553 317.5 553.907 324.481 562.979 324.481Z" fill="#6C63FF"/>
<path d="M542.447 253.34C538.996 253.34 535.622 252.368 532.752 250.548C529.882 248.727 527.645 246.14 526.324 243.113C525.003 240.085 524.658 236.754 525.331 233.541C526.004 230.327 527.666 227.375 530.107 225.058C532.548 222.741 535.657 221.163 539.043 220.524C542.428 219.885 545.937 220.213 549.126 221.467C552.315 222.721 555.04 224.844 556.958 227.569C558.876 230.293 559.899 233.496 559.899 236.773C559.894 241.165 558.054 245.376 554.782 248.482C551.51 251.588 547.074 253.335 542.447 253.34V253.34ZM542.447 222.155C539.402 222.155 536.425 223.012 533.892 224.618C531.36 226.225 529.386 228.508 528.221 231.179C527.055 233.85 526.75 236.789 527.345 239.625C527.939 242.46 529.405 245.065 531.559 247.109C533.713 249.154 536.456 250.546 539.443 251.11C542.43 251.674 545.527 251.384 548.34 250.278C551.154 249.172 553.559 247.298 555.251 244.894C556.943 242.49 557.846 239.664 557.846 236.773C557.842 232.897 556.218 229.181 553.331 226.441C550.444 223.701 546.53 222.159 542.447 222.155V222.155Z" fill="#3F3D56"/>
<path d="M358.69 253.34C355.238 253.34 351.864 252.368 348.994 250.548C346.124 248.727 343.887 246.14 342.566 243.113C341.245 240.085 340.9 236.754 341.573 233.541C342.246 230.327 343.909 227.375 346.349 225.058C348.79 222.741 351.9 221.163 355.285 220.524C358.67 219.885 362.179 220.213 365.368 221.467C368.557 222.721 371.283 224.844 373.2 227.569C375.118 230.293 376.141 233.496 376.141 236.773C376.136 241.165 374.296 245.376 371.024 248.482C367.752 251.588 363.316 253.335 358.69 253.34V253.34ZM358.69 222.155C355.644 222.155 352.667 223.012 350.134 224.618C347.602 226.225 345.629 228.508 344.463 231.179C343.298 233.85 342.993 236.789 343.587 239.625C344.181 242.46 345.647 245.065 347.801 247.109C349.955 249.154 352.698 250.546 355.685 251.11C358.672 251.674 361.769 251.384 364.582 250.278C367.396 249.172 369.801 247.298 371.493 244.894C373.185 242.49 374.088 239.664 374.088 236.773C374.084 232.897 372.46 229.181 369.573 226.441C366.686 223.701 362.772 222.159 358.69 222.155V222.155Z" fill="#3F3D56"/>
<path d="M632.786 457.992C629.335 457.992 625.961 457.02 623.091 455.2C620.221 453.38 617.984 450.792 616.663 447.765C615.342 444.738 614.996 441.407 615.67 438.193C616.343 434.979 618.005 432.027 620.446 429.71C622.887 427.393 625.996 425.815 629.382 425.176C632.767 424.537 636.276 424.865 639.465 426.119C642.654 427.373 645.379 429.496 647.297 432.221C649.215 434.945 650.238 438.148 650.238 441.425C650.233 445.817 648.393 450.028 645.121 453.134C641.849 456.24 637.413 457.987 632.786 457.992V457.992ZM632.786 426.807C629.741 426.807 626.764 427.664 624.231 429.271C621.699 430.877 619.725 433.16 618.56 435.831C617.394 438.502 617.089 441.441 617.684 444.277C618.278 447.112 619.744 449.717 621.898 451.762C624.051 453.806 626.795 455.198 629.782 455.762C632.769 456.326 635.865 456.037 638.679 454.93C641.493 453.824 643.898 451.95 645.59 449.546C647.282 447.142 648.185 444.316 648.185 441.425C648.181 437.549 646.557 433.834 643.67 431.093C640.783 428.353 636.869 426.811 632.786 426.807V426.807Z" fill="#3F3D56"/>
<path d="M632.786 571.038C641.858 571.038 649.212 564.057 649.212 555.446C649.212 546.834 641.858 539.853 632.786 539.853C623.715 539.853 616.361 546.834 616.361 555.446C616.361 564.057 623.715 571.038 632.786 571.038Z" fill="#6C63FF"/>
<path d="M358.69 572.013C355.238 572.013 351.864 571.041 348.994 569.221C346.124 567.4 343.887 564.813 342.566 561.786C341.245 558.758 340.9 555.427 341.573 552.214C342.246 549 343.909 546.048 346.349 543.731C348.79 541.414 351.9 539.836 355.285 539.197C358.67 538.558 362.179 538.886 365.368 540.14C368.557 541.394 371.283 543.517 373.2 546.242C375.118 548.966 376.141 552.169 376.141 555.446C376.136 559.838 374.296 564.049 371.024 567.155C367.752 570.261 363.316 572.008 358.69 572.013V572.013ZM358.69 540.828C355.644 540.828 352.667 541.685 350.134 543.291C347.602 544.898 345.629 547.181 344.463 549.852C343.298 552.523 342.993 555.462 343.587 558.298C344.181 561.133 345.647 563.738 347.801 565.782C349.955 567.827 352.698 569.219 355.685 569.783C358.672 570.347 361.769 570.057 364.582 568.951C367.396 567.845 369.801 565.971 371.493 563.567C373.185 561.163 374.088 558.337 374.088 555.446C374.084 551.57 372.46 547.854 369.573 545.114C366.686 542.374 362.772 540.832 358.69 540.828V540.828Z" fill="#3F3D56"/>
<path d="M561.952 448.247C558.501 448.247 555.127 447.275 552.257 445.455C549.387 443.634 547.15 441.047 545.829 438.02C544.508 434.992 544.163 431.661 544.836 428.448C545.509 425.234 547.171 422.282 549.612 419.965C552.053 417.648 555.162 416.07 558.548 415.431C561.933 414.792 565.442 415.12 568.631 416.374C571.82 417.628 574.546 419.751 576.463 422.475C578.381 425.2 579.404 428.403 579.404 431.68C579.399 436.072 577.559 440.283 574.287 443.389C571.015 446.495 566.579 448.242 561.952 448.247V448.247ZM561.952 417.062C558.907 417.062 555.93 417.919 553.397 419.525C550.865 421.131 548.891 423.414 547.726 426.086C546.56 428.757 546.255 431.696 546.85 434.531C547.444 437.367 548.91 439.972 551.064 442.016C553.218 444.061 555.961 445.453 558.948 446.017C561.935 446.581 565.032 446.291 567.845 445.185C570.659 444.079 573.064 442.205 574.756 439.801C576.448 437.397 577.351 434.571 577.351 431.68C577.347 427.804 575.723 424.088 572.836 421.348C569.949 418.607 566.035 417.066 561.952 417.062V417.062Z" fill="#3F3D56"/>
<path d="M84.5925 408.291C80.5317 408.291 76.5622 409.434 73.1858 411.576C69.8094 413.717 67.1778 416.761 65.6238 420.323C64.0698 423.884 63.6632 427.803 64.4554 431.584C65.2477 435.365 67.2031 438.838 70.0745 441.564C72.9459 444.289 76.6043 446.146 80.587 446.898C84.5697 447.65 88.6979 447.264 92.4496 445.789C96.2013 444.313 99.4079 441.815 101.664 438.61C103.92 435.405 105.124 431.637 105.124 427.782C105.108 422.617 102.94 417.668 99.093 414.016C95.246 410.364 90.0329 408.306 84.5925 408.291V408.291ZM84.5925 414.138C85.8107 414.138 87.0016 414.481 88.0145 415.124C89.0275 415.766 89.8169 416.679 90.2831 417.748C90.7493 418.816 90.8713 419.992 90.6336 421.126C90.396 422.26 89.8093 423.302 88.9479 424.12C88.0865 424.938 86.989 425.495 85.7942 425.72C84.5993 425.946 83.3609 425.83 82.2354 425.387C81.1099 424.945 80.1479 424.195 79.4711 423.234C78.7943 422.272 78.433 421.142 78.433 419.985C78.4385 418.436 79.0892 416.952 80.2431 415.856C81.3971 414.761 82.9606 414.143 84.5925 414.138V414.138ZM84.5925 442.287C82.1593 442.277 79.7655 441.703 77.6188 440.615C75.4721 439.528 73.6373 437.959 72.2736 436.046C72.3723 432.148 80.4862 430.002 84.5925 430.002C88.6988 430.002 96.8128 432.148 96.9115 436.046C95.5462 437.958 93.711 439.525 91.5647 440.613C89.4183 441.7 87.0253 442.275 84.5925 442.287V442.287Z" fill="white"/>
<path d="M155.426 142.243C151.366 142.243 147.396 143.386 144.02 145.528C140.643 147.669 138.012 150.713 136.458 154.275C134.904 157.836 134.497 161.755 135.289 165.536C136.082 169.317 138.037 172.79 140.908 175.516C143.78 178.241 147.438 180.098 151.421 180.85C155.404 181.602 159.532 181.216 163.284 179.741C167.035 178.265 170.242 175.767 172.498 172.562C174.754 169.357 175.958 165.589 175.958 161.734C175.942 156.569 173.774 151.62 169.927 147.968C166.08 144.316 160.867 142.258 155.426 142.243V142.243ZM155.426 148.09C156.645 148.09 157.836 148.433 158.849 149.076C159.861 149.718 160.651 150.631 161.117 151.7C161.583 152.768 161.705 153.944 161.468 155.078C161.23 156.212 160.643 157.254 159.782 158.072C158.92 158.89 157.823 159.447 156.628 159.672C155.433 159.898 154.195 159.782 153.069 159.339C151.944 158.897 150.982 158.147 150.305 157.186C149.628 156.224 149.267 155.094 149.267 153.937C149.272 152.388 149.923 150.904 151.077 149.808C152.231 148.713 153.795 148.095 155.426 148.09V148.09ZM155.426 176.239C152.993 176.229 150.599 175.655 148.453 174.567C146.306 173.48 144.471 171.911 143.108 169.998C143.206 166.1 151.32 163.954 155.426 163.954C159.533 163.954 167.647 166.1 167.745 169.998C166.38 171.91 164.545 173.477 162.399 174.565C160.252 175.652 157.859 176.227 155.426 176.239V176.239Z" fill="white"/>
<path d="M542.447 75C538.386 75 534.417 76.1431 531.04 78.2848C527.664 80.4264 525.032 83.4705 523.478 87.0319C521.924 90.5934 521.518 94.5123 522.31 98.2931C523.102 102.074 525.058 105.547 527.929 108.273C530.8 110.999 534.459 112.855 538.442 113.607C542.424 114.359 546.553 113.973 550.304 112.498C554.056 111.023 557.262 108.524 559.518 105.319C561.775 102.114 562.979 98.3456 562.979 94.4907C562.963 89.3261 560.795 84.3773 556.948 80.7254C553.101 77.0734 547.888 75.0151 542.447 75V75ZM542.447 80.8472C543.665 80.8472 544.856 81.1901 545.869 81.8326C546.882 82.4751 547.672 83.3884 548.138 84.4568C548.604 85.5252 548.726 86.7009 548.488 87.8352C548.251 88.9694 547.664 90.0113 546.803 90.829C545.941 91.6468 544.844 92.2037 543.649 92.4293C542.454 92.6549 541.215 92.5391 540.09 92.0965C538.964 91.654 538.003 90.9045 537.326 89.943C536.649 88.9814 536.288 87.8509 536.288 86.6944C536.293 85.1452 536.944 83.661 538.098 82.5655C539.252 81.4701 540.815 80.8524 542.447 80.8472V80.8472ZM542.447 108.996C540.014 108.986 537.62 108.412 535.473 107.324C533.327 106.237 531.492 104.669 530.128 102.756C530.227 98.8574 538.341 96.7115 542.447 96.7115C546.553 96.7115 554.667 98.8574 554.766 102.756C553.401 104.667 551.566 106.234 549.419 107.322C547.273 108.409 544.88 108.984 542.447 108.996Z" fill="white"/>
<path d="M817.571 419.985C813.51 419.985 809.54 421.128 806.164 423.27C802.788 425.412 800.156 428.456 798.602 432.017C797.048 435.579 796.641 439.498 797.434 443.279C798.226 447.059 800.181 450.532 803.053 453.258C805.924 455.984 809.582 457.84 813.565 458.592C817.548 459.344 821.676 458.958 825.428 457.483C829.179 456.008 832.386 453.51 834.642 450.305C836.898 447.099 838.102 443.331 838.102 439.476C838.086 434.311 835.918 429.363 832.071 425.711C828.224 422.059 823.011 420 817.571 419.985V419.985ZM817.571 425.833C818.789 425.833 819.98 426.176 820.993 426.818C822.006 427.461 822.795 428.374 823.261 429.442C823.727 430.511 823.849 431.686 823.612 432.821C823.374 433.955 822.787 434.997 821.926 435.814C821.065 436.632 819.967 437.189 818.772 437.415C817.578 437.64 816.339 437.524 815.214 437.082C814.088 436.639 813.126 435.89 812.449 434.928C811.772 433.967 811.411 432.836 811.411 431.68C811.417 430.131 812.067 428.646 813.221 427.551C814.375 426.455 815.939 425.838 817.571 425.833V425.833ZM817.571 453.982C815.137 453.971 812.744 453.397 810.597 452.31C808.45 451.222 806.615 449.654 805.252 447.741C805.35 443.843 813.464 441.697 817.571 441.697C821.677 441.697 829.791 443.843 829.89 447.741C828.524 449.652 826.689 451.22 824.543 452.307C822.396 453.394 820.004 453.969 817.571 453.982V453.982Z" fill="white"/>
<path d="M356.664 468.476C373.074 468.476 386.377 452.785 386.377 433.43C386.377 414.075 373.074 398.385 356.664 398.385C340.254 398.385 326.951 414.075 326.951 433.43C326.951 452.785 340.254 468.476 356.664 468.476Z" fill="#F9A100"/>
<path d="M368.619 429.34C369.175 424.954 366.344 422.597 362.473 421.024L363.728 415.083L360.661 414.182L359.439 419.966C358.634 419.729 357.806 419.506 356.983 419.284L358.215 413.462L355.15 412.561L353.894 418.499C353.227 418.32 352.572 418.143 351.936 417.957L351.94 417.938L347.711 416.693L346.896 420.555C346.896 420.555 349.171 421.17 349.122 421.208C349.547 421.268 349.934 421.522 350.201 421.915C350.468 422.309 350.594 422.81 350.551 423.311L349.121 430.079C349.229 430.111 349.336 430.151 349.439 430.2L349.116 430.105L347.111 439.586C347.066 439.751 346.995 439.905 346.9 440.038C346.806 440.171 346.69 440.28 346.559 440.36C346.429 440.44 346.286 440.488 346.14 440.503C345.993 440.517 345.846 440.498 345.705 440.445C345.736 440.497 343.477 439.789 343.477 439.789L341.955 443.929L345.946 445.102C346.688 445.322 347.415 445.551 348.13 445.768L346.862 451.777L349.924 452.679L351.182 446.734C352.017 447.002 352.829 447.249 353.624 447.481L352.372 453.399L355.438 454.3L356.707 448.302C361.935 449.469 365.867 448.999 367.52 443.422C368.853 438.932 367.454 436.341 364.704 434.651C366.707 434.104 368.216 432.55 368.618 429.34L368.619 429.34ZM361.613 440.926C360.665 445.416 354.255 442.99 352.176 442.38L353.86 434.42C355.938 435.031 362.602 436.243 361.614 440.926H361.613ZM362.561 429.275C361.696 433.36 356.361 431.284 354.629 430.776L356.156 423.555C357.887 424.064 363.462 425.014 362.561 429.275V429.275Z" fill="white"/>
<path d="M153.173 459.493C169.583 459.493 182.886 443.803 182.886 424.447C182.886 405.092 169.583 389.402 153.173 389.402C136.763 389.402 123.46 405.092 123.46 424.447C123.46 443.803 136.763 459.493 153.173 459.493Z" fill="#3F3D56"/>
<path d="M153.65 447.146L165.679 427.166L153.65 435.543L141.629 427.166L153.65 447.146H153.65Z" fill="white"/>
<path d="M153.65 431.575H153.65L165.671 423.194L153.65 399.668H153.65L141.629 423.194L153.65 431.575Z" fill="white"/>
<path d="M567.423 468.476C583.833 468.476 597.136 452.785 597.136 433.43C597.136 414.075 583.833 398.385 567.423 398.385C551.013 398.385 537.71 414.075 537.71 433.43C537.71 452.785 551.013 468.476 567.423 468.476Z" fill="#7D7D7D"/>
<path d="M580.71 443.99L578.893 449.715H566.175H554.668L560.724 432.391L566.175 416.35H571.179L561.647 443.99H580.71Z" fill="white"/>
<path d="M570.696 428.13L557.295 430.126L556.808 434.086L570.209 432.09L570.696 428.13Z" fill="white"/>
<path d="M359.087 273.419C375.497 273.419 388.8 257.728 388.8 238.373C388.8 219.018 375.497 203.327 359.087 203.327C342.677 203.327 329.374 219.018 329.374 238.373C329.374 257.728 342.677 273.419 359.087 273.419Z" fill="#3F3D56"/>
<path d="M370.435 222.694H375.078L365.417 233.971C363.729 235.933 361.455 237.033 359.085 237.033C356.716 237.033 354.441 235.933 352.754 233.971L343.094 222.694H347.737L355.076 231.261C356.144 232.503 357.585 233.2 359.086 233.2C360.587 233.2 362.027 232.503 363.096 231.261L370.435 222.694ZM347.678 254.051H343.035L352.755 242.705C354.442 240.743 356.717 239.643 359.087 239.643C361.456 239.643 363.731 240.743 365.418 242.705L375.138 254.051H370.495L363.096 245.415C362.027 244.173 360.587 243.476 359.086 243.476C357.585 243.476 356.144 244.173 355.076 245.415L347.678 254.051Z" fill="white"/>
<path d="M112.303 572.25C121.743 558.03 117.281 537.475 102.338 526.341C87.3944 515.206 67.6276 517.709 58.1876 531.93C48.7475 546.15 53.2089 566.705 68.1524 577.839C83.0959 588.974 102.863 586.471 112.303 572.25Z" fill="#00AF00"/>
<path d="M88.9633 539.376C85.8969 536.372 82.4481 537.469 79.0069 539.919L75.1426 535.413L72.6826 537.552L76.4451 541.939C75.799 542.5 75.1502 543.089 74.506 543.675L70.7191 539.258L68.2606 541.395L72.1228 545.901C71.6006 546.376 71.0871 546.841 70.5774 547.285L70.5651 547.271L67.1714 550.219L69.6841 553.148C69.6841 553.148 71.4675 551.53 71.4693 551.594C71.7596 551.26 72.1785 551.071 72.6359 551.066C73.0932 551.06 73.5525 551.24 73.9149 551.566L78.3172 556.698C78.4042 556.623 78.4965 556.554 78.5936 556.492L78.3346 556.717L84.5004 563.909C84.6028 564.043 84.6803 564.193 84.7285 564.351C84.7766 564.51 84.7945 564.673 84.781 564.832C84.7675 564.991 84.723 565.143 84.6499 565.278C84.5769 565.414 84.4767 565.53 84.3553 565.621C84.4134 565.625 82.5668 567.175 82.5668 567.175L84.8878 570.876L88.0893 568.092C88.6857 567.575 89.2815 567.077 89.8599 566.582L93.7699 571.139L96.2274 569.003L92.361 564.494C93.0485 563.923 93.7065 563.362 94.3434 562.807L98.1914 567.296L100.651 565.158L96.7505 560.608C100.659 556.749 102.558 553.07 99.2035 548.43C96.5035 544.691 93.6989 544.413 90.8115 545.825C91.5417 543.774 91.2098 541.572 88.9628 539.377L88.9633 539.376ZM93.878 552.112C96.7995 555.518 91.2388 559.676 89.5719 561.127L84.3944 555.089C86.0624 553.639 90.831 548.562 93.8785 552.112L93.878 552.112ZM85.4279 544.589C88.0843 547.688 83.4126 551.118 82.0236 552.326L77.3274 546.849C78.7164 545.641 82.6566 541.357 85.4279 544.589V544.589Z" fill="white"/>
<path d="M637.476 553.425C637.476 553.425 634.069 567.951 637.476 567.951C640.884 567.951 647.13 572.101 656.785 570.718C666.439 569.334 663.6 554.809 656.785 552.734C649.97 550.659 651.674 534.058 651.674 534.058C649.402 528.524 638.612 535.441 638.612 535.441L637.476 553.425Z" fill="#2F2E41"/>
<path d="M685.852 437.917C685.852 437.917 680.006 451.241 683.337 452.116C686.667 452.991 692.055 458.652 701.732 459.78C711.409 460.907 711.148 445.979 704.846 442.2C698.544 438.421 703.083 422.632 703.083 422.632C701.821 416.639 690.076 420.629 690.076 420.629L685.852 437.917Z" fill="#2F2E41"/>
<path d="M615.77 182.45C616.709 184.738 612.483 213.334 612.483 213.334L616.24 221.34C616.24 221.34 637.84 211.046 634.553 209.33C631.266 207.614 631.735 186.453 631.735 186.453C631.735 186.453 614.831 180.162 615.77 182.45Z" fill="#947979"/>
<path d="M623.9 191.265C639.801 191.265 652.691 175.565 652.691 156.198C652.691 136.831 639.801 121.132 623.9 121.132C607.999 121.132 595.109 136.831 595.109 156.198C595.109 175.565 607.999 191.265 623.9 191.265Z" fill="#2F2E41"/>
<path d="M621.915 137.88C628.494 137.88 633.828 131.384 633.828 123.37C633.828 115.356 628.494 108.86 621.915 108.86C615.335 108.86 610.001 115.356 610.001 123.37C610.001 131.384 615.335 137.88 621.915 137.88Z" fill="#2F2E41"/>
<path d="M627.127 129.942C627.539 129.994 627.953 130.02 628.368 130.021C629.932 130.021 631.481 129.645 632.927 128.916C634.372 128.187 635.686 127.118 636.792 125.771C637.898 124.423 638.776 122.824 639.374 121.063C639.973 119.303 640.281 117.416 640.281 115.51C640.281 113.605 639.973 111.718 639.374 109.957C638.776 108.197 637.898 106.597 636.792 105.25C635.686 103.903 634.372 102.834 632.927 102.105C631.481 101.375 629.932 101 628.368 101C627.953 101 627.539 101.026 627.127 101.078C630.056 101.452 632.767 103.134 634.738 105.799C636.709 108.464 637.799 111.924 637.799 115.51C637.799 119.097 636.709 122.557 634.738 125.222C632.767 127.887 630.056 129.568 627.127 129.942Z" fill="#2F2E41"/>
<path d="M596.283 210.188C590.179 211.904 579.848 230.205 579.848 230.205L596.283 250.222C596.283 250.222 608.022 303.983 609.431 306.271C618.66 321.258 660.144 287.969 660.144 287.969C660.144 287.969 658.501 271.669 659.44 263.663C660.343 255.962 655.918 240.5 655.918 240.5C655.918 240.5 671.414 232.493 668.127 224.486C664.84 216.479 644.649 198.178 636.196 204.469C627.744 210.76 610.84 204.469 610.84 204.469C610.84 204.469 602.388 208.472 596.283 210.188Z" fill="#E6E6E6"/>
<path d="M624.692 197.32C635.584 197.32 644.414 186.566 644.414 173.299C644.414 160.033 635.584 149.279 624.692 149.279C613.8 149.279 604.97 160.033 604.97 173.299C604.97 186.566 613.8 197.32 624.692 197.32Z" fill="#947979"/>
<path d="M716.257 325.43C716.257 325.43 743.023 353.454 749.596 347.735C756.17 342.015 724.24 321.998 724.24 321.998L716.257 325.43Z" fill="#947979"/>
<path d="M596.048 315.707C599.805 320.855 617.649 307.7 615.361 301.859C613.073 296.017 598.866 307.7 598.866 307.7C598.866 307.7 592.292 310.56 596.048 315.707Z" fill="#947979"/>
<path d="M596.283 238.212L576.562 282.822C576.562 282.822 599.101 305.699 601.918 306.271C604.735 306.842 596.283 321.712 596.283 321.712C596.283 321.712 570.927 299.979 561.066 289.113C551.205 278.247 579.848 230.205 579.848 230.205L588.301 223.914L596.283 238.212Z" fill="#E6E6E6"/>
<path d="M653.57 236.496L676.579 279.962C676.579 279.962 711.797 328.003 716.492 330.291C721.188 332.579 726.823 321.712 726.823 321.712L684.562 259.373L668.596 224.486L662.492 221.626L653.57 236.496Z" fill="#E6E6E6"/>
<path d="M623.9 159.27C634.866 159.27 643.756 152.773 643.756 144.76C643.756 136.746 634.866 130.249 623.9 130.249C612.934 130.249 604.044 136.746 604.044 144.76C604.044 152.773 612.934 159.27 623.9 159.27Z" fill="#2F2E41"/>
<path d="M679.602 457.836C678.952 457.837 678.328 458.152 677.867 458.712C677.407 459.273 677.148 460.033 677.148 460.825V562.792C677.148 563.584 677.407 564.344 677.867 564.905C678.328 565.465 678.952 565.78 679.602 565.781H965.066C965.717 565.78 966.341 565.465 966.801 564.904C967.261 564.344 967.52 563.584 967.52 562.792V460.825C967.52 460.033 967.261 459.273 966.801 458.712C966.341 458.152 965.717 457.837 965.066 457.836L679.602 457.836Z" fill="#E6E6E6"/>
<path d="M683.299 558.289H961.369V465.327H683.299V558.289Z" fill="white"/>
<path d="M926.27 539.004C925.736 539.003 925.206 539.131 924.713 539.379C924.219 539.628 923.77 539.992 923.392 540.452C923.014 540.912 922.714 541.458 922.509 542.06C922.305 542.661 922.199 543.305 922.199 543.956C922.199 544.607 922.305 545.251 922.509 545.853C922.714 546.454 923.014 547 923.392 547.46C923.77 547.92 924.219 548.284 924.713 548.533C925.206 548.782 925.736 548.909 926.27 548.908H942.534C943.612 548.908 944.646 548.387 945.409 547.458C946.171 546.529 946.6 545.27 946.6 543.956C946.6 542.643 946.171 541.383 945.409 540.454C944.646 539.526 943.612 539.004 942.534 539.004H926.27Z" fill="#6C63FF"/>
<path d="M946.6 529.398H758.855V530.701H946.6V529.398Z" fill="#E6E6E6"/>
<path d="M719.611 540.652C732.69 540.652 743.293 527.738 743.293 511.808C743.293 495.878 732.69 482.964 719.611 482.964C706.532 482.964 695.929 495.878 695.929 511.808C695.929 527.738 706.532 540.652 719.611 540.652Z" fill="#6C63FF"/>
<path d="M759.152 522.123L758.559 521.039L778.068 505.197L791.446 513.018L810.689 498.045L848.968 517.932L879.451 499.694L909.051 514.31L946.245 474.187L946.954 475.162L909.264 515.822L879.493 501.121L848.999 519.365L810.789 499.513L791.521 514.508L778.154 506.694L759.152 522.123Z" fill="#3F3D56"/>
<path d="M762.332 539.685C761.875 539.684 761.423 539.793 761 540.006C760.578 540.218 760.194 540.53 759.871 540.924C759.547 541.317 759.291 541.784 759.116 542.298C758.941 542.812 758.851 543.363 758.851 543.92C758.851 544.476 758.941 545.027 759.116 545.542C759.291 546.056 759.547 546.523 759.871 546.916C760.194 547.309 760.578 547.621 761 547.834C761.423 548.046 761.875 548.155 762.332 548.154H798.704C799.625 548.153 800.509 547.706 801.16 546.912C801.811 546.118 802.176 545.042 802.176 543.92C802.176 542.798 801.811 541.721 801.16 540.927C800.509 540.133 799.625 539.687 798.704 539.685H762.332Z" fill="#E6E6E6"/>
<path d="M728.656 498.904H732.356L724.656 508.185C723.311 509.8 721.498 510.705 719.61 510.705C717.721 510.705 715.908 509.8 714.563 508.185L706.865 498.904H710.565L716.414 505.955C717.266 506.978 718.414 507.551 719.61 507.551C720.807 507.551 721.955 506.978 722.807 505.955L728.656 498.904ZM710.518 524.712H706.818L714.564 515.374C715.91 513.759 717.722 512.854 719.611 512.854C721.5 512.854 723.312 513.759 724.657 515.374L732.404 524.712H728.704L722.807 517.605C721.955 516.582 720.807 516.008 719.61 516.008C718.414 516.008 717.266 516.582 716.414 517.605L710.518 524.712Z" fill="white"/>
<path d="M716.775 131.228C716.124 131.229 715.5 131.544 715.04 132.105C714.58 132.665 714.321 133.425 714.32 134.218V236.184C714.321 236.977 714.58 237.736 715.04 238.297C715.5 238.857 716.124 239.173 716.775 239.173H1002.24C1002.89 239.173 1003.51 238.857 1003.97 238.297C1004.43 237.736 1004.69 236.977 1004.69 236.184V134.218C1004.69 133.425 1004.43 132.665 1003.97 132.105C1003.51 131.544 1002.89 131.229 1002.24 131.228L716.775 131.228Z" fill="#E6E6E6"/>
<path d="M720.471 231.682H998.541V138.72H720.471V231.682Z" fill="white"/>
<path d="M963.442 212.396C962.364 212.396 961.33 212.918 960.567 213.847C959.805 214.776 959.376 216.035 959.376 217.349C959.376 218.662 959.805 219.922 960.567 220.85C961.33 221.779 962.364 222.301 963.442 222.301H979.706C980.784 222.301 981.818 221.779 982.581 220.85C983.343 219.922 983.772 218.662 983.772 217.349C983.772 216.035 983.343 214.776 982.581 213.847C981.818 212.918 980.784 212.396 979.706 212.396H963.442Z" fill="#6C63FF"/>
<path d="M983.772 202.791H796.028V204.094H983.772V202.791Z" fill="#E6E6E6"/>
<path d="M756.783 214.045C769.862 214.045 780.465 201.131 780.465 185.201C780.465 169.271 769.862 156.357 756.783 156.357C743.704 156.357 733.101 169.271 733.101 185.201C733.101 201.131 743.704 214.045 756.783 214.045Z" fill="#6C63FF"/>
<path d="M796.324 195.515L795.731 194.43L815.24 178.589L828.618 186.411L847.861 171.437L848.121 171.572L886.14 191.325L916.623 173.087L946.223 187.703L983.417 147.579L984.126 148.554L946.436 189.214L916.665 174.513L886.171 192.758L847.961 172.905L828.693 187.899L815.327 180.085L796.324 195.515Z" fill="#3F3D56"/>
<path d="M799.504 213.078C798.583 213.079 797.7 213.526 797.049 214.32C796.398 215.114 796.032 216.19 796.032 217.312C796.032 218.434 796.398 219.511 797.049 220.305C797.7 221.098 798.583 221.545 799.504 221.547H835.876C836.799 221.547 837.683 221.101 838.335 220.306C838.987 219.512 839.353 218.435 839.353 217.312C839.353 216.189 838.987 215.112 838.335 214.318C837.683 213.524 836.799 213.078 835.876 213.078H799.504Z" fill="#E6E6E6"/>
<path d="M766.312 181.834C766.754 178.225 764.498 176.284 761.413 174.99L762.413 170.1L759.969 169.359L758.995 174.119C758.353 173.924 757.693 173.74 757.038 173.558L758.019 168.766L755.577 168.024L754.575 172.912C754.043 172.765 753.521 172.619 753.015 172.465L753.018 172.45L749.648 171.425L748.997 174.604C748.997 174.604 750.811 175.11 750.772 175.142C751.11 175.191 751.419 175.4 751.632 175.724C751.845 176.047 751.945 176.46 751.911 176.873L750.771 182.443C750.857 182.469 750.942 182.502 751.025 182.542L750.767 182.464L749.169 190.267C749.134 190.403 749.077 190.53 749.001 190.639C748.926 190.748 748.834 190.838 748.729 190.904C748.625 190.97 748.512 191.01 748.395 191.022C748.278 191.034 748.16 191.018 748.049 190.974C748.073 191.017 746.273 190.434 746.273 190.434L745.06 193.842L748.24 194.807C748.832 194.988 749.412 195.177 749.982 195.355L748.97 200.301L751.411 201.043L752.413 196.15C753.079 196.37 753.727 196.574 754.36 196.765L753.362 201.635L755.806 202.377L756.817 197.441C760.984 198.401 764.118 198.014 765.435 193.425C766.498 189.729 765.383 187.597 763.191 186.206C764.787 185.756 765.99 184.476 766.311 181.834L766.312 181.834ZM760.728 191.37C759.972 195.066 754.863 193.069 753.206 192.567L754.548 186.015C756.204 186.518 761.516 187.515 760.728 191.37H760.728ZM761.483 181.781C760.794 185.143 756.541 183.435 755.161 183.016L756.378 177.073C757.758 177.492 762.201 178.274 761.483 181.781Z" fill="white"/>
<path d="M829.082 294.532C828.431 294.533 827.807 294.848 827.347 295.408C826.887 295.969 826.628 296.729 826.627 297.521V399.488C826.628 400.28 826.887 401.04 827.347 401.601C827.807 402.161 828.431 402.476 829.082 402.477H1114.55C1115.2 402.476 1115.82 402.161 1116.28 401.601C1116.74 401.04 1117 400.28 1117 399.488V297.521C1117 296.729 1116.74 295.969 1116.28 295.408C1115.82 294.848 1115.2 294.533 1114.55 294.532L829.082 294.532Z" fill="#E6E6E6"/>
<path d="M832.778 394.985H1110.85V302.024H832.778V394.985Z" fill="white"/>
<path d="M1075.75 375.7C1074.67 375.7 1073.64 376.222 1072.87 377.151C1072.11 378.079 1071.68 379.339 1071.68 380.652C1071.68 381.966 1072.11 383.225 1072.87 384.154C1073.64 385.083 1074.67 385.605 1075.75 385.605H1092.01C1093.09 385.605 1094.13 385.083 1094.89 384.154C1095.65 383.225 1096.08 381.966 1096.08 380.652C1096.08 379.339 1095.65 378.079 1094.89 377.151C1094.13 376.222 1093.09 375.7 1092.01 375.7H1075.75Z" fill="#6C63FF"/>
<path d="M1096.08 366.094H908.335V367.397H1096.08V366.094Z" fill="#E6E6E6"/>
<path d="M869.09 377.348C882.169 377.348 892.772 364.435 892.772 348.505C892.772 332.575 882.169 319.661 869.09 319.661C856.011 319.661 845.408 332.575 845.408 348.505C845.408 364.435 856.011 377.348 869.09 377.348Z" fill="#6C63FF"/>
<path d="M908.632 358.819L908.038 357.734L927.547 341.893L940.926 349.715L960.168 334.741L960.429 334.876L998.447 354.629L1028.93 336.391L1058.53 351.006L1095.72 310.883L1096.43 311.859L1058.74 352.518L1028.97 337.817L998.478 356.062L960.269 336.21L941 351.204L927.634 343.39L908.632 358.819Z" fill="#3F3D56"/>
<path d="M911.812 376.381C910.889 376.381 910.005 376.828 909.353 377.622C908.701 378.416 908.335 379.493 908.335 380.616C908.335 381.739 908.701 382.816 909.353 383.61C910.005 384.404 910.889 384.851 911.812 384.851H948.184C949.106 384.851 949.99 384.404 950.642 383.61C951.294 382.816 951.66 381.739 951.66 380.616C951.66 379.493 951.294 378.416 950.642 377.622C949.99 376.828 949.106 376.381 948.184 376.381H911.812Z" fill="#E6E6E6"/>
<path d="M869.088 367.515L878.675 351.07L869.088 357.965L859.507 351.07L869.087 367.515H869.088Z" fill="white"/>
<path d="M869.087 355.755H869.088L878.669 348.857L869.088 329.495H869.087L859.507 348.857L869.087 355.755Z" fill="white"/>
<path d="M609.431 306.271C599.101 316.565 616.005 406.928 616.005 406.928C616.005 406.928 619.762 544.761 627.744 551.052C635.727 557.343 653.57 550.48 660.614 549.336C667.657 548.192 661.553 462.976 651.222 431.521C640.892 400.065 648.875 354.312 648.875 354.312L704.753 367.466C704.753 367.466 670.944 402.353 672.353 409.788C673.762 417.223 709.918 442.387 716.492 443.531C723.066 444.675 735.744 397.778 747.014 365.75C758.284 333.723 670.005 313.134 670.005 313.134L657.796 285.109C657.796 285.109 619.762 295.976 609.431 306.271Z" fill="#2F2E41"/>
<path d="M542 115.5C555.807 115.5 567 103.747 567 89.25C567 74.7525 555.807 63 542 63C528.193 63 517 74.7525 517 89.25C517 103.747 528.193 115.5 542 115.5Z" fill="#2F2E41"/>
<path d="M541.942 122.024C552.035 122.024 560.217 112.915 560.217 101.679C560.217 90.4422 552.035 81.3333 541.942 81.3333C531.849 81.3333 523.667 90.4422 523.667 101.679C523.667 112.915 531.849 122.024 541.942 122.024Z" fill="#FFB9B9"/>
<path d="M541.852 93.142C551.318 93.142 558.992 88.0163 558.992 81.6933C558.992 75.3703 551.318 70.2446 541.852 70.2446C532.386 70.2446 524.713 75.3703 524.713 81.6933C524.713 88.0163 532.386 93.142 541.852 93.142Z" fill="#2F2E41"/>
<path d="M818 457.5C831.807 457.5 843 445.747 843 431.25C843 416.753 831.807 405 818 405C804.193 405 793 416.753 793 431.25C793 445.747 804.193 457.5 818 457.5Z" fill="#2F2E41"/>
<path d="M817.942 464.024C828.035 464.024 836.217 454.915 836.217 443.679C836.217 432.442 828.035 423.333 817.942 423.333C807.849 423.333 799.667 432.442 799.667 443.679C799.667 454.915 807.849 464.024 817.942 464.024Z" fill="#947979"/>
<path d="M817.852 435.142C827.318 435.142 834.992 430.016 834.992 423.693C834.992 417.37 827.318 412.245 817.852 412.245C808.386 412.245 800.713 417.37 800.713 423.693C800.713 430.016 808.386 435.142 817.852 435.142Z" fill="#2F2E41"/>
<path d="M154 182.5C167.807 182.5 179 170.747 179 156.25C179 141.753 167.807 130 154 130C140.193 130 129 141.753 129 156.25C129 170.747 140.193 182.5 154 182.5Z" fill="#2F2E41"/>
<path d="M153.942 189.024C164.035 189.024 172.217 179.915 172.217 168.679C172.217 157.442 164.035 148.333 153.942 148.333C143.849 148.333 135.667 157.442 135.667 168.679C135.667 179.915 143.849 189.024 153.942 189.024Z" fill="#947979"/>
<path d="M153.852 160.142C163.318 160.142 170.992 155.016 170.992 148.693C170.992 142.37 163.318 137.245 153.852 137.245C144.386 137.245 136.713 142.37 136.713 148.693C136.713 155.016 144.386 160.142 153.852 160.142Z" fill="#2F2E41"/>
<path d="M86 444.5C99.8071 444.5 111 432.747 111 418.25C111 403.753 99.8071 392 86 392C72.1929 392 61 403.753 61 418.25C61 432.747 72.1929 444.5 86 444.5Z" fill="#2F2E41"/>
<path d="M85.9416 451.024C96.0346 451.024 104.217 441.915 104.217 430.679C104.217 419.442 96.0346 410.333 85.9416 410.333C75.8486 410.333 67.6666 419.442 67.6666 430.679C67.6666 441.915 75.8486 451.024 85.9416 451.024Z" fill="#FFB9B9"/>
<path d="M85.8523 422.142C95.3182 422.142 102.992 417.016 102.992 410.693C102.992 404.37 95.3182 399.245 85.8523 399.245C76.3864 399.245 68.7128 404.37 68.7128 410.693C68.7128 417.016 76.3864 422.142 85.8523 422.142Z" fill="#2F2E41"/>
<defs>
<linearGradient id="paint0_linear" x1="918" y1="227" x2="918" y2="591.5" gradientUnits="userSpaceOnUse">
<stop stop-color="white"/>
<stop offset="1" stop-color="white" stop-opacity="0"/>
</linearGradient>
<linearGradient id="paint1_linear" x1="918" y1="301" x2="918" y2="665.5" gradientUnits="userSpaceOnUse">
<stop stop-color="white"/>
<stop offset="1" stop-color="white" stop-opacity="0"/>
</linearGradient>
<linearGradient id="paint2_linear" x1="451.25" y1="1" x2="451.25" y2="666.5" gradientUnits="userSpaceOnUse">
<stop stop-color="white"/>
<stop offset="1" stop-color="white" stop-opacity="0"/>
</linearGradient>
<linearGradient id="paint3_linear" x1="271.75" y1="0" x2="271.75" y2="665.5" gradientUnits="userSpaceOnUse">
<stop stop-color="white"/>
<stop offset="1" stop-color="white" stop-opacity="0"/>
</linearGradient>
</defs>
</svg>
