<svg width="1400" height="667" viewBox="0 0 1400 667" fill="none" xmlns="http://www.w3.org/2000/svg">
<path d="M0 1H1400V666H0V1Z" fill="#047ED6"/>
<path d="M912.5 227L436 591.5H1400V227H912.5Z" fill="#047ED6"/>
<path d="M912.5 227L436 591.5H1400V227H912.5Z" fill="url(#paint0_linear)" fill-opacity="0.6"/>
<path d="M912.5 301L436 665.5H1400V301H912.5Z" fill="#047ED6"/>
<path d="M912.5 301L436 665.5H1400V301H912.5Z" fill="url(#paint1_linear)" fill-opacity="0.6"/>
<path d="M689.5 1H183V666.5L689.5 291V1Z" fill="#047ED6"/>
<path d="M689.5 1H183V666.5L689.5 291V1Z" fill="url(#paint2_linear)" fill-opacity="0.5"/>
<path d="M510 0H3.5V665.5L510 290V0Z" fill="#047ED6"/>
<path d="M510 0H3.5V665.5L510 290V0Z" fill="url(#paint3_linear)" fill-opacity="0.6"/>
<defs>
<linearGradient id="paint0_linear" x1="918" y1="227" x2="918" y2="591.5" gradientUnits="userSpaceOnUse">
<stop stop-color="white"/>
<stop offset="1" stop-color="white" stop-opacity="0"/>
</linearGradient>
<linearGradient id="paint1_linear" x1="918" y1="301" x2="918" y2="665.5" gradientUnits="userSpaceOnUse">
<stop stop-color="white"/>
<stop offset="1" stop-color="white" stop-opacity="0"/>
</linearGradient>
<linearGradient id="paint2_linear" x1="451.25" y1="1" x2="451.25" y2="666.5" gradientUnits="userSpaceOnUse">
<stop stop-color="white"/>
<stop offset="1" stop-color="white" stop-opacity="0"/>
</linearGradient>
<linearGradient id="paint3_linear" x1="271.75" y1="0" x2="271.75" y2="665.5" gradientUnits="userSpaceOnUse">
<stop stop-color="white"/>
<stop offset="1" stop-color="white" stop-opacity="0"/>
</linearGradient>
</defs>
</svg>
