<svg width="1490" height="937" viewBox="0 0 1490 937" fill="none" xmlns="http://www.w3.org/2000/svg">
<path d="M749.781 937C1153.81 937 1481.33 911.924 1481.33 880.992C1481.33 850.06 1153.81 824.984 749.781 824.984C345.755 824.984 18.2277 850.06 18.2277 880.992C18.2277 911.924 345.755 937 749.781 937Z" fill="#F2F2F2"/>
<path d="M721.742 267.853C602.553 267.853 516.976 356.287 516.976 562.631C516.976 796.489 602.553 858.392 721.742 858.392C840.932 858.392 931.607 790.593 931.607 562.631C931.607 318.948 840.932 267.853 721.742 267.853ZM722.526 780.768C639.972 780.768 596.843 724.758 596.843 562.783C596.843 419.863 641.738 344.496 724.292 344.496C806.845 344.496 851.74 394.002 851.74 562.783C851.74 720.674 805.08 780.768 722.526 780.768Z" fill="#888796"/>
<path d="M445.604 695.282H396.324V527.459C396.324 518.546 393.262 509.997 387.812 503.694C382.362 497.391 374.97 493.85 367.262 493.85H355.715C351.898 493.85 348.119 494.719 344.593 496.408C341.067 498.097 337.863 500.573 335.165 503.694C332.466 506.815 330.325 510.52 328.865 514.598C327.404 518.675 326.653 523.046 326.653 527.459V695.282H187.65C184.791 695.282 181.98 694.427 179.49 692.8C177 691.174 174.916 688.831 173.44 685.998C171.964 683.166 171.146 679.94 171.066 676.635C170.986 673.329 171.645 670.055 172.981 667.131L320.099 345.116C321.934 341.102 323.045 336.699 323.368 332.174C323.69 327.648 323.216 323.094 321.974 318.787C320.732 314.479 318.749 310.507 316.143 307.111C313.537 303.714 310.363 300.963 306.813 299.025L298.128 294.282C291.385 290.599 283.675 290.055 276.594 292.763C269.514 295.471 263.604 301.222 260.089 308.828L80.6583 697.005C77.6029 703.615 76.0043 710.994 76.0043 718.489V718.489C76.0043 724.474 77.0236 730.4 79.0041 735.93C80.9845 741.459 83.8873 746.483 87.5467 750.715C91.206 754.947 95.5503 758.304 100.332 760.594C105.113 762.884 110.237 764.063 115.412 764.063H326.653V870.183C326.653 875.474 327.554 880.713 329.304 885.6C331.055 890.488 333.621 894.929 336.856 898.67C340.091 902.411 343.931 905.379 348.157 907.403C352.384 909.428 356.914 910.47 361.488 910.47H361.489C366.063 910.47 370.593 909.428 374.82 907.403C379.046 905.379 382.886 902.411 386.121 898.67C389.356 894.929 391.922 890.488 393.673 885.6C395.423 880.713 396.324 875.474 396.324 870.183V764.063H445.604C453.491 764.063 461.055 760.44 466.632 753.99C472.209 747.541 475.342 738.793 475.342 729.672V729.672C475.342 720.551 472.209 711.804 466.632 705.355C461.055 698.905 453.491 695.282 445.604 695.282V695.282Z" fill="#F2F2F2"/>
<path d="M1358.13 695.282H1308.85V527.459C1308.85 518.546 1305.79 509.997 1300.34 503.694C1294.89 497.391 1287.5 493.85 1279.79 493.85H1268.24C1264.43 493.85 1260.65 494.719 1257.12 496.408C1253.6 498.097 1250.39 500.573 1247.69 503.694C1245 506.815 1242.86 510.52 1241.39 514.598C1239.93 518.675 1239.18 523.046 1239.18 527.459V695.282H1100.18C1097.32 695.282 1094.51 694.427 1092.02 692.8C1089.53 691.174 1087.45 688.831 1085.97 685.998C1084.49 683.166 1083.68 679.94 1083.6 676.635C1083.52 673.329 1084.18 670.055 1085.51 667.131L1232.63 345.117C1234.46 341.102 1235.58 336.699 1235.9 332.174C1236.22 327.648 1235.75 323.094 1234.5 318.787C1233.26 314.479 1231.28 310.507 1228.67 307.111C1226.07 303.714 1222.89 300.963 1219.34 299.025L1210.66 294.282C1203.91 290.599 1196.21 290.055 1189.12 292.763C1182.04 295.471 1176.13 301.222 1172.62 308.828L993.188 697.005C990.133 703.615 988.534 710.994 988.534 718.489V718.489C988.534 730.576 992.686 742.168 1000.08 750.715C1007.47 759.262 1017.49 764.063 1027.94 764.063H1239.18V870.183C1239.18 880.868 1242.85 891.115 1249.39 898.67C1255.92 906.225 1264.78 910.47 1274.02 910.47V910.47C1283.26 910.47 1292.12 906.225 1298.65 898.67C1305.18 891.115 1308.85 880.868 1308.85 870.183V764.063H1358.13C1366.02 764.063 1373.59 760.44 1379.16 753.99C1384.74 747.541 1387.87 738.793 1387.87 729.672V729.672C1387.87 720.552 1384.74 711.804 1379.16 705.355C1373.59 698.905 1366.02 695.282 1358.13 695.282Z" fill="#F2F2F2"/>
<path d="M459.199 675.63H409.919V507.807C409.919 503.394 409.167 499.023 407.707 494.946C406.246 490.868 404.105 487.163 401.407 484.042C398.708 480.921 395.504 478.445 391.978 476.756C388.452 475.067 384.673 474.198 380.857 474.198H369.309C361.602 474.198 354.21 477.739 348.759 484.042C343.309 490.345 340.247 498.894 340.247 507.807V675.63H201.245C198.385 675.63 195.574 674.775 193.085 673.148C190.595 671.522 188.511 669.179 187.035 666.346C185.559 663.514 184.741 660.288 184.661 656.983C184.58 653.677 185.24 650.403 186.576 647.48L333.694 325.465C335.528 321.45 336.64 317.047 336.962 312.522C337.284 307.996 336.81 303.442 335.568 299.135C334.327 294.827 332.343 290.855 329.737 287.459C327.132 284.062 323.958 281.311 320.408 279.373L311.723 274.63C304.979 270.947 297.27 270.403 290.189 273.111C283.108 275.819 277.199 281.57 273.683 289.176L94.2528 677.353C91.1974 683.963 89.5988 691.342 89.5988 698.837V698.837C89.5988 710.924 93.7507 722.516 101.141 731.063C108.532 739.61 118.555 744.411 129.007 744.411H340.247V850.531C340.247 855.822 341.148 861.061 342.899 865.948C344.65 870.836 347.216 875.277 350.45 879.018C353.685 882.759 357.525 885.727 361.752 887.751C365.978 889.776 370.508 890.818 375.083 890.818H375.083C384.322 890.818 393.183 886.573 399.716 879.018C406.249 871.463 409.919 861.216 409.919 850.531V744.411H459.199C463.104 744.411 466.971 743.522 470.579 741.793C474.187 740.065 477.465 737.532 480.227 734.338C482.988 731.145 485.179 727.354 486.673 723.181C488.168 719.009 488.937 714.537 488.937 710.021V710.021C488.937 705.504 488.168 701.032 486.673 696.86C485.179 692.687 482.988 688.896 480.227 685.703C477.465 682.509 474.187 679.976 470.579 678.248C466.971 676.519 463.104 675.63 459.199 675.63V675.63Z" stroke="#3F3D56" stroke-miterlimit="10"/>
<path d="M1383.62 675.63H1334.34V507.807C1334.34 498.894 1331.28 490.345 1325.83 484.042C1320.38 477.739 1312.99 474.198 1305.28 474.198H1293.73C1289.92 474.198 1286.14 475.067 1282.61 476.756C1279.09 478.445 1275.88 480.921 1273.18 484.042C1270.49 487.163 1268.35 490.868 1266.88 494.946C1265.42 499.023 1264.67 503.394 1264.67 507.807V675.63H1125.67C1122.81 675.63 1120 674.775 1117.51 673.148C1115.02 671.522 1112.94 669.179 1111.46 666.346C1109.98 663.514 1109.17 660.288 1109.09 656.983C1109.01 653.677 1109.66 650.403 1111 647.48L1258.12 325.465C1259.95 321.45 1261.07 317.047 1261.39 312.522C1261.71 307.996 1261.24 303.442 1259.99 299.135C1258.75 294.827 1256.77 290.855 1254.16 287.459C1251.56 284.062 1248.38 281.311 1244.83 279.373L1236.15 274.63C1229.4 270.947 1221.69 270.403 1214.61 273.111C1207.53 275.819 1201.62 281.57 1198.11 289.176L1018.68 677.353C1015.62 683.963 1014.02 691.342 1014.02 698.837C1014.02 710.924 1018.18 722.516 1025.57 731.063C1032.96 739.61 1042.98 744.411 1053.43 744.411H1264.67V850.531C1264.67 861.216 1268.34 871.463 1274.88 879.018C1281.41 886.573 1290.27 890.818 1299.51 890.818V890.818C1308.75 890.818 1317.61 886.573 1324.14 879.018C1330.67 871.463 1334.34 861.216 1334.34 850.531V744.411H1383.62C1387.53 744.411 1391.4 743.522 1395 741.793C1398.61 740.065 1401.89 737.532 1404.65 734.338C1407.41 731.145 1409.6 727.354 1411.1 723.181C1412.59 719.009 1413.36 714.537 1413.36 710.021V710.021C1413.36 700.9 1410.23 692.152 1404.65 685.703C1399.08 679.253 1391.51 675.63 1383.62 675.63V675.63Z" stroke="#3F3D56" stroke-miterlimit="10"/>
<path d="M748.931 250.166C629.741 250.166 544.164 338.6 544.164 544.945C544.164 778.802 629.741 840.706 748.931 840.706C868.121 840.706 958.796 772.907 958.796 544.945C958.796 301.261 868.121 250.166 748.931 250.166ZM749.715 763.081C667.161 763.081 624.032 707.071 624.032 545.096C624.032 402.177 668.927 326.809 751.48 326.809C834.034 326.809 878.929 376.315 878.929 545.096C878.929 702.987 832.269 763.081 749.715 763.081V763.081Z" stroke="#3F3D56" stroke-miterlimit="10"/>
<path d="M697.031 150.389C724.747 150.389 747.216 116.723 747.216 75.1946C747.216 33.6658 724.747 0 697.031 0C669.315 0 646.847 33.6658 646.847 75.1946C646.847 116.723 669.315 150.389 697.031 150.389Z" fill="#2F2E41"/>
<path opacity="0.1" d="M697.031 127.679C671.892 127.679 651.07 99.9807 647.417 63.8397C647.036 67.6087 646.846 71.4001 646.847 75.1946C646.847 116.723 669.316 150.389 697.031 150.389C724.747 150.389 747.216 116.723 747.216 75.1946C747.217 71.4001 747.026 67.6087 746.646 63.8397C742.993 99.9807 722.171 127.679 697.031 127.679Z" fill="black"/>
<path d="M799.151 295.405C798.073 300.527 793.426 304.629 788.279 307.495C777.46 313.52 764.113 315.318 751.168 315.921C747.866 316.153 744.553 316.083 741.26 315.71C734.879 314.996 728.893 311.814 724.271 306.678C723.941 306.429 723.67 306.088 723.485 305.686C723.3 305.283 723.207 304.834 723.213 304.378C723.219 303.923 723.324 303.476 723.52 303.081C723.716 302.685 723.995 302.354 724.331 302.117C731.223 293.362 742.724 287.993 754.309 284.128C763.094 281.197 778.414 273.606 787.995 274.63C797.276 275.623 800.511 288.938 799.151 295.405Z" fill="#3F3D56"/>
<path opacity="0.1" d="M799.151 295.405C798.073 300.527 793.426 304.629 788.279 307.495C777.46 313.52 764.113 315.318 751.168 315.921C747.866 316.153 744.553 316.083 741.26 315.71C734.879 314.996 728.893 311.814 724.271 306.678C723.941 306.429 723.67 306.088 723.485 305.686C723.3 305.283 723.207 304.834 723.213 304.378C723.219 303.923 723.324 303.476 723.52 303.081C723.716 302.685 723.995 302.354 724.331 302.117C731.223 293.362 742.724 287.993 754.309 284.128C763.094 281.197 778.414 273.606 787.995 274.63C797.276 275.623 800.511 288.938 799.151 295.405Z" fill="black"/>
<path d="M661.579 257.126C658.276 264.612 657.678 273.308 659.917 281.303C662.193 289.238 666.455 296.214 672.161 301.346C686.161 314.324 705.428 316.109 723.37 315.929C739.094 315.771 754.795 314.526 770.391 312.202C775.617 311.667 780.752 310.288 785.648 308.105C791.504 305.176 796.649 299.802 798.734 292.828C800.819 285.854 799.339 277.315 794.388 272.661C790.038 268.572 784.038 268.009 778.442 267.62L746.424 265.395C749.587 261.693 753.799 259.599 757.651 256.908C762.762 253.337 766.158 247.342 769.874 241.936C775.599 234.023 781.829 226.615 788.511 219.776C789.553 226.689 793.334 232.366 797.785 237.136C802.235 241.906 807.366 245.746 811.991 250.288C823.195 261.287 831.263 276.216 843.046 286.374C851.151 283.911 858.729 279.536 865.302 273.524L860.723 263.931C860.341 262.944 859.747 262.086 858.997 261.441C857.701 260.518 856.029 260.994 854.524 260.733C850.501 260.035 848.744 254.664 847.166 250.328C842.832 238.425 834.534 229.19 827.448 219.208C822.218 211.839 817.578 203.936 813.586 195.595C811.205 190.621 809.026 185.441 805.795 181.156C802.565 176.87 798.038 173.501 793.122 173.489C788.778 173.478 784.771 176.028 781.036 178.594C769.661 186.408 758.716 195.031 748.265 204.413C742.796 209.324 737.361 214.512 730.945 217.523C728.244 218.79 725.397 219.657 722.805 221.199C718.266 223.901 714.821 228.472 711.112 232.529C697.885 247 679.776 256.376 661.579 257.126Z" fill="#3F3D56"/>
<path d="M728.53 154.124C728.381 158.547 727.567 162.907 726.125 167.008C725.394 169.053 724.307 170.902 722.931 172.44C721.554 173.977 719.919 175.171 718.126 175.945C715.581 176.734 712.912 176.834 710.328 176.238C708.075 175.966 705.903 175.11 703.974 173.735C700.972 171.348 699.475 167.088 698.93 162.92C698.384 158.756 698.629 154.502 698.279 150.308C697.939 146.921 697.382 143.568 696.613 140.276C696.377 139.181 696.137 138.091 695.901 137.001C695.67 135.91 695.443 134.82 695.234 133.73C695.041 132.706 694.863 131.676 694.71 130.642C694.583 129.769 694.47 128.891 694.387 128.007C694.311 125.389 693.933 122.794 693.265 120.291C692.638 118.668 691.854 117.132 690.926 115.714C690.529 115.058 690.145 114.402 689.792 113.721C688.769 111.95 688.294 109.832 688.443 107.71C688.485 107.382 688.554 107.059 688.649 106.746C688.683 106.625 688.723 106.504 688.766 106.388C689.159 106.265 689.52 106.032 689.817 105.711C690.114 105.39 690.339 104.99 690.473 104.546C690.623 103.591 690.552 102.607 690.268 101.694C689.941 100.419 689.495 99.1883 688.937 98.0255C688.57 97.2584 687.326 95.8756 687.318 94.9974C687.3 93.2311 690.285 91.808 691.494 91.1115C695.184 88.9748 699.298 88.01 703.416 88.3157C706.056 88.5226 708.919 89.4613 710.376 92.0199C711.685 94.3262 711.511 97.3138 712.069 99.9936C712.128 100.383 712.271 100.749 712.484 101.058C712.769 101.359 713.127 101.549 713.509 101.603C714.156 101.752 714.818 101.783 715.473 101.694H715.477C715.651 101.678 715.823 101.65 715.992 101.608C717.012 101.391 717.976 100.91 718.811 100.201C719.353 100.034 719.898 99.8977 720.448 99.7917C720.47 99.7891 720.492 99.784 720.513 99.7766C722.7 107.755 722.983 116.309 724.772 124.434C725.658 128.477 726.928 132.469 727.107 136.627C727.12 136.809 727.125 136.995 727.129 137.182C727.155 138.519 727.064 139.867 727.111 141.199C727.128 141.799 727.186 142.397 727.286 142.986C727.482 143.933 727.725 144.867 728.015 145.782L728.028 145.827C728.111 146.12 728.189 146.417 728.255 146.715C728.303 146.932 728.346 147.144 728.381 147.361L728.386 147.376C728.709 149.606 728.757 151.878 728.53 154.124V154.124Z" fill="#FBBEBE"/>
<path d="M697.904 101.942C712.124 101.942 723.651 88.611 723.651 72.1667C723.651 55.7223 712.124 42.3916 697.904 42.3916C683.685 42.3916 672.158 55.7223 672.158 72.1667C672.158 88.611 683.685 101.942 697.904 101.942Z" fill="#FBBEBE"/>
<path d="M861.365 234.395C860.619 226.272 858.122 218.495 854.103 211.776C854.771 216.369 855.44 220.959 856.111 225.548C855.277 225.827 854.392 225.819 853.562 225.524C852.733 225.229 851.996 224.66 851.442 223.888C850.357 222.323 849.528 220.543 848.993 218.635C846.068 210.237 842.243 202.297 837.608 195.001C821.218 193.422 805.015 185.564 790.601 176.404C776.183 167.25 762.69 156.274 748.464 146.73C745.998 145.006 743.428 143.488 740.775 142.188C736.323 140.124 731.327 139.054 727.107 136.627C726.823 136.465 726.54 136.294 726.26 136.117C725.307 135.518 724.404 134.817 723.564 134.023C723.109 133.596 722.678 133.138 722.272 132.65C720.166 129.818 718.497 126.588 717.336 123.102C715.072 117.309 714.264 110.319 712.004 104.525C713.043 103.403 714.21 102.45 715.473 101.694H715.477C715.661 101.583 715.844 101.477 716.032 101.376C716.926 100.889 717.856 100.496 718.811 100.2C719.353 100.034 719.898 99.8977 720.448 99.7917C720.47 99.7891 720.492 99.784 720.513 99.7766C723.063 99.2961 725.675 99.5351 728.128 100.473C731.715 101.876 734.739 104.677 737.755 107.326C742.654 111.318 747.352 115.628 751.828 120.236C754.316 122.991 756.585 126.019 759.26 128.522C761.483 130.506 763.826 132.302 766.272 133.897C780.747 143.869 795.224 153.839 809.701 163.808C814.602 167.184 819.507 170.56 824.299 174.133C831.577 179.564 838.594 185.448 845.607 191.327C849.74 194.789 853.871 198.253 858.001 201.718C859.356 202.718 860.545 203.989 861.513 205.473C862.369 207.157 862.9 209.035 863.071 210.979C864.108 218.831 863.523 226.855 861.365 234.395V234.395Z" fill="#FBBEBE"/>
<path d="M734.914 176.516C733.177 185.524 725.305 190.969 721.19 198.882C716.075 208.703 718.161 220.118 720.081 231.367C716.573 234.865 713.063 238.362 709.551 241.859C707.614 243.782 705.676 245.715 703.59 247.416C700.549 249.772 697.37 251.883 694.077 253.734C690.97 255.581 687.863 257.43 684.756 259.28C681.868 261.158 678.807 262.658 675.631 263.751C669.509 265.568 663.007 264.296 656.95 262.192C656.235 261.975 655.549 261.651 654.907 261.228C654.529 260.968 654.2 260.623 653.939 260.214C653.341 258.976 653.124 257.54 653.323 256.141C653.939 244.352 656.43 232.811 658.913 221.355C660.241 214.482 662.025 207.738 664.25 201.183C666.433 195.567 668.942 190.128 671.76 184.903C674.871 178.329 678.556 172.142 682.757 166.437C684.803 164.242 686.524 161.675 687.854 158.837C689.403 154.749 688.806 150.061 689.12 145.61C689.36 142.266 690.128 139.001 691.385 135.976V135.971C692.057 134.342 692.867 132.793 693.802 131.348C694.225 132.489 694.649 133.628 695.072 134.765C695.351 135.512 695.628 136.257 695.901 137.001C696.259 137.959 696.614 138.915 696.966 139.867C697.983 142.602 698.998 145.336 700.012 148.068C701.108 151.509 702.669 154.727 704.638 157.601C705.538 159.073 706.752 160.25 708.163 161.016C709.573 161.783 711.132 162.114 712.686 161.976C714.24 161.838 715.737 161.237 717.03 160.23C718.323 159.224 719.368 157.847 720.064 156.233C721.531 153.222 722.593 149.97 723.214 146.589C724.076 142.473 724.195 138.195 723.564 134.023C722.512 125.989 719.558 117.783 717.411 110.319C716.537 107.83 716.031 105.19 715.914 102.507C715.918 102.205 715.944 101.905 715.992 101.609C716.005 101.533 716.019 101.452 716.032 101.377C716.926 100.889 717.856 100.496 718.811 100.201C719.352 100.034 719.898 99.8979 720.448 99.7919C722.337 111.621 724.23 123.45 726.125 135.28C726.169 135.557 726.217 135.835 726.26 136.117C726.531 137.813 726.806 139.509 727.111 141.199C727.386 142.734 727.683 144.263 728.015 145.782L728.028 145.827C728.141 146.342 728.259 146.852 728.381 147.361L728.386 147.376C728.722 148.769 729.097 150.152 729.52 151.515C732.086 159.725 736.559 167.992 734.914 176.516Z" fill="#F2F2F2"/>
<path d="M839.404 303.11C839.322 304.845 839.613 306.577 840.25 308.151C841.861 311.557 845.727 312.331 849.073 312.649C868.617 314.507 888.279 313.814 907.688 310.584C908.741 310.501 909.763 310.134 910.672 309.513C913.431 307.276 911.73 301.823 908.717 300.077C905.704 298.331 902.128 298.752 898.822 297.996C895.537 297.04 892.409 295.471 889.561 293.351C882.855 288.896 876.248 284.251 869.739 279.417C865.863 276.539 861.289 273.467 856.924 275.174C845.101 279.799 839.326 288.36 839.404 303.11Z" fill="#F2F2F2"/>
<path d="M695.334 133.1V133.105C695.303 133.317 695.273 133.523 695.233 133.73C695.185 134.074 695.129 134.422 695.072 134.765C694.531 137.969 693.868 141.159 693.104 144.328C691.009 153.084 688.203 161.699 685.419 170.187C677.948 192.947 670.476 215.709 663.002 238.473C661.117 244.206 659.236 249.944 657.094 255.561C656.378 257.433 655.64 259.32 654.907 261.228C652.28 268.056 649.758 275.106 648.92 282.373C648.139 287.156 648.049 292.055 648.654 296.872C649.492 301.636 651.992 306.289 655.907 308.051C657.818 308.913 660.554 310.069 660.03 312.365C659.747 313.627 658.507 314.243 657.395 314.455C655.925 314.725 654.422 314.619 652.992 314.143C651.562 313.667 650.241 312.832 649.121 311.699C647.03 309.554 645.425 306.219 642.645 305.86C640.72 305.618 638.949 306.95 637.186 307.884C629.994 311.684 621.616 309.025 614.062 306.325C614.655 302.787 617.727 300.455 620.778 299.749C623.828 299.037 626.983 299.542 630.094 299.446C631.091 299.508 632.079 299.213 632.927 298.603C633.686 297.797 634.218 296.746 634.454 295.585C636.458 288.718 637.949 281.663 638.909 274.501C639.913 267.016 640.332 259.416 641.763 252.023C642.876 246.255 644.595 240.668 646.07 235.006C648.923 223.347 651.265 211.53 653.088 199.599C654.009 194.642 654.669 189.625 655.064 184.575C655.313 180.386 655.195 176.177 655.544 172.004C656.13 166.574 657.11 161.211 658.472 155.971C659.808 150.253 661.142 144.538 662.474 138.827C664.451 130.374 666.572 121.593 671.581 115.022C673.321 112.709 675.454 110.834 677.846 109.513C680.238 108.192 682.84 107.453 685.489 107.342C686.482 107.34 687.473 107.464 688.443 107.71C688.605 107.755 688.766 107.801 688.928 107.851C689.985 108.171 691 108.657 691.943 109.295C693.488 108.159 694.273 108.558 695.299 110.309C696.198 112.162 696.622 114.273 696.521 116.395C696.607 121.995 696.21 127.591 695.334 133.1Z" fill="#FBBEBE"/>
<path d="M697.031 139.791L696.966 139.867L696.613 140.276L693.104 144.328L691.385 135.976L685.489 107.342C686.483 107.34 687.473 107.464 688.443 107.71C688.485 107.382 688.554 107.059 688.649 106.746L688.928 107.851L690.926 115.714L694.71 130.642L695.334 133.1V133.105L697.031 139.791Z" fill="#F2F2F2"/>
<path d="M719.295 48.4398C719.292 51.0913 718.838 53.716 717.957 56.1641C717.077 58.6122 715.788 60.8355 714.164 62.7071C713.575 63.3883 712.945 64.0189 712.277 64.5938C709.266 67.2191 705.598 68.64 701.827 68.642H680.891C676.265 68.6338 671.831 66.5027 668.562 62.7168C665.293 58.9309 663.457 53.7996 663.457 48.4497C663.457 43.0997 665.293 37.9684 668.562 34.1825C671.831 30.3966 676.265 28.2656 680.891 28.2573H701.827C706.453 28.2713 710.887 30.4015 714.16 34.1829C717.433 37.9642 719.279 43.0896 719.295 48.4398V48.4398Z" fill="#2F2E41"/>
<path opacity="0.1" d="M712.277 64.5938C709.266 67.2191 705.598 68.64 701.827 68.642H680.891C677.12 68.64 673.452 67.2191 670.44 64.5938H712.277Z" fill="black"/>
<path d="M847.472 214.52C847.472 214.52 851.983 229.55 856.111 225.548L852.82 205.902L847.472 214.52Z" fill="#FBBEBE"/>
<path d="M1396.35 672.881C1400.55 674.647 1405.05 675.261 1409.49 674.674C1413.93 674.086 1418.19 672.314 1421.94 669.497C1425.69 666.679 1428.82 662.894 1431.09 658.438C1433.35 653.983 1434.7 648.98 1435.01 643.822C1435.32 638.665 1434.58 633.496 1432.87 628.721C1431.16 623.946 1428.51 619.696 1425.14 616.307C1421.76 612.917 1417.75 610.481 1413.42 609.189C1409.09 607.898 1404.57 607.787 1400.19 608.864L1400.92 626.045L1393.89 611.321C1386.99 615.069 1381.66 621.832 1379.07 630.122C1378.15 633.026 1377.59 636.066 1377.41 639.151C1376.97 646.39 1378.58 653.599 1381.99 659.686C1385.41 665.772 1390.45 670.405 1396.35 672.881V672.881Z" fill="#57B894"/>
<path d="M1431.13 872.145C1428.65 857.534 1439.4 844.58 1450.02 836.161C1460.64 827.741 1473.05 819.469 1476.67 805.18C1481.88 784.645 1466.37 765.839 1454.29 749.621C1445.33 737.586 1437.64 724.365 1431.38 710.236C1428.87 704.57 1426.56 698.648 1425.9 692.327C1424.94 683.225 1427.47 674.167 1430.02 665.484C1438.51 636.56 1447.58 607.879 1457.24 579.439" stroke="#3F3D56" stroke-miterlimit="10"/>
<path d="M1397.54 668.458C1401.74 670.224 1406.24 670.838 1410.68 670.25C1415.12 669.663 1419.38 667.891 1423.13 665.074C1426.88 662.256 1430.01 658.471 1432.28 654.015C1434.54 649.56 1435.88 644.556 1436.19 639.399C1436.5 634.242 1435.77 629.072 1434.06 624.297C1432.35 619.522 1429.7 615.273 1426.32 611.883C1422.95 608.494 1418.94 606.057 1414.61 604.766C1410.28 603.474 1405.75 603.363 1401.38 604.441L1402.1 621.621L1395.08 606.898C1388.18 610.646 1382.85 617.408 1380.26 625.699C1379.34 628.603 1378.78 631.643 1378.6 634.728C1378.16 641.967 1379.76 649.176 1383.18 655.263C1386.6 661.349 1391.64 665.982 1397.54 668.458V668.458Z" stroke="#3F3D56" stroke-miterlimit="10"/>
<path d="M1427.6 573.506C1429.25 568.245 1432.02 563.549 1435.65 559.85C1439.28 556.151 1443.65 553.568 1448.37 552.34L1450.75 568.673L1455.16 551.519C1461.27 551.624 1467.21 553.974 1472.09 558.231C1476.98 562.488 1480.57 568.43 1482.35 575.201C1484.12 581.972 1483.99 589.22 1481.97 595.899C1479.96 602.579 1476.15 608.344 1471.12 612.362C1466.08 616.38 1460.07 618.443 1453.96 618.254C1447.84 618.065 1441.94 615.632 1437.09 611.308C1432.25 606.985 1428.72 600.993 1427.01 594.198C1425.31 587.403 1425.51 580.157 1427.6 573.506H1427.6Z" fill="#57B894"/>
<path d="M1429.19 567.609C1430.83 562.348 1433.6 557.651 1437.23 553.952C1440.86 550.253 1445.24 547.671 1449.96 546.442L1452.34 562.775L1456.74 545.621C1462.86 545.726 1468.79 548.076 1473.68 552.333C1478.56 556.59 1482.15 562.533 1483.93 569.303C1485.71 576.074 1485.58 583.322 1483.56 590.002C1481.54 596.681 1477.74 602.446 1472.7 606.464C1467.67 610.482 1461.66 612.546 1455.54 612.356C1449.43 612.167 1443.52 609.735 1438.68 605.411C1433.83 601.087 1430.31 595.095 1428.6 588.3C1426.89 581.506 1427.1 574.26 1429.19 567.609H1429.19Z" stroke="#3F3D56" stroke-miterlimit="10"/>
<path d="M1449.23 749.952C1455.89 752.747 1463.21 752.609 1469.79 749.564C1476.37 746.52 1481.75 740.782 1484.91 733.443C1488.06 726.105 1488.77 717.68 1486.9 709.774C1485.04 701.868 1480.72 695.034 1474.77 690.575L1471.38 703.757L1468.98 687.231C1468.96 687.218 1468.94 687.208 1468.91 687.199C1465.35 685.701 1461.56 685.03 1457.77 685.224C1453.99 685.418 1450.27 686.473 1446.83 688.33C1443.4 690.186 1440.31 692.807 1437.75 696.042C1435.2 699.278 1433.21 703.065 1431.92 707.187C1430.63 711.309 1430.05 715.685 1430.22 720.065C1430.39 724.446 1431.3 728.744 1432.91 732.716C1434.52 736.687 1436.79 740.254 1439.59 743.211C1442.38 746.169 1445.66 748.459 1449.23 749.952H1449.23Z" fill="#57B894"/>
<path d="M1450.6 743.978C1457.26 746.773 1464.58 746.635 1471.16 743.591C1477.74 740.546 1483.12 734.808 1486.28 727.47C1489.44 720.131 1490.15 711.706 1488.28 703.8C1486.41 695.894 1482.09 689.06 1476.14 684.601L1472.76 697.783L1470.36 681.257C1470.33 681.245 1470.31 681.234 1470.28 681.225C1466.72 679.728 1462.94 679.056 1459.15 679.25C1455.36 679.444 1451.64 680.5 1448.21 682.356C1444.77 684.212 1441.69 686.833 1439.13 690.068C1436.57 693.304 1434.59 697.091 1433.29 701.213C1432 705.335 1431.42 709.711 1431.59 714.092C1431.76 718.472 1432.68 722.771 1434.28 726.742C1435.89 730.714 1438.16 734.28 1440.96 737.238C1443.76 740.195 1447.03 742.486 1450.6 743.978H1450.6Z" stroke="#3F3D56" stroke-miterlimit="10"/>
<path d="M1419.18 805.384C1420.32 812.922 1423.67 819.776 1428.67 824.795C1433.67 829.815 1440 832.695 1446.62 832.952C1453.23 833.21 1459.72 830.83 1465 826.21C1470.28 821.591 1474.02 815.014 1475.6 807.582C1477.18 800.15 1476.51 792.315 1473.69 785.391C1470.87 778.467 1466.07 772.875 1460.11 769.554C1454.15 766.232 1447.38 765.382 1440.94 767.147C1434.5 768.912 1428.78 773.184 1424.74 779.246L1437.6 801.63L1420.03 789.749C1418.67 794.807 1418.37 800.169 1419.18 805.384V805.384Z" fill="#57B894"/>
<path d="M1420.37 800.961C1421.51 808.499 1424.86 815.353 1429.86 820.372C1434.86 825.392 1441.19 828.272 1447.81 828.529C1454.42 828.787 1460.91 826.406 1466.19 821.787C1471.47 817.168 1475.21 810.591 1476.79 803.159C1478.37 795.726 1477.7 787.892 1474.87 780.968C1472.05 774.044 1467.26 768.452 1461.3 765.131C1455.34 761.809 1448.57 760.959 1442.13 762.724C1435.69 764.489 1429.97 768.76 1425.93 774.823L1438.79 797.207L1421.22 785.326C1419.85 790.384 1419.56 795.746 1420.37 800.961V800.961Z" stroke="#3F3D56" stroke-miterlimit="10"/>
<path d="M12.4918 754.193C15.252 755.354 18.2076 755.757 21.1255 755.371C24.0434 754.985 26.844 753.821 29.3064 751.97C31.7689 750.119 33.8259 747.632 35.3154 744.704C36.8048 741.777 37.686 738.49 37.8894 735.101C38.0929 731.713 37.613 728.316 36.4877 725.179C35.3624 722.042 33.6224 719.25 31.4048 717.023C29.1872 714.796 26.5527 713.195 23.7088 712.347C20.865 711.498 17.8897 711.425 15.0173 712.133L15.4919 723.421L10.874 713.747C6.34169 716.21 2.84032 720.653 1.1393 726.1C0.535189 728.008 0.167937 730.005 0.0484958 732.032C-0.242992 736.788 0.814062 741.525 3.05947 745.524C5.30488 749.523 8.61627 752.566 12.4918 754.193V754.193Z" fill="#57B894"/>
<path d="M35.3416 885.113C33.7115 875.513 40.7752 867.003 47.7526 861.471C54.7299 855.939 62.8826 850.504 65.2633 841.116C68.6847 827.624 58.4932 815.268 50.5609 804.613C44.6759 796.705 39.622 788.019 35.5051 778.736C33.7152 775.089 32.4961 771.106 31.9039 766.969C31.2784 760.989 32.9399 755.038 34.6137 749.333C40.1896 730.33 46.1512 711.485 52.4985 692.8" stroke="#3F3D56" stroke-miterlimit="10"/>
<path d="M13.2728 751.287C16.033 752.448 18.9885 752.851 21.9065 752.465C24.8244 752.079 27.6249 750.915 30.0874 749.064C32.5498 747.213 34.6068 744.725 36.0963 741.798C37.5857 738.871 38.4669 735.583 38.6703 732.195C38.8738 728.807 38.3939 725.41 37.2686 722.273C36.1433 719.136 34.4033 716.344 32.1857 714.117C29.9681 711.89 27.3336 710.289 24.4898 709.44C21.646 708.592 18.6706 708.519 15.7982 709.227L16.2729 720.515L11.6549 710.841C7.12264 713.304 3.62127 717.747 1.92024 723.194C1.31614 725.101 0.948894 727.099 0.829446 729.126C0.537939 733.882 1.59499 738.619 3.8404 742.618C6.08582 746.617 9.39721 749.66 13.2728 751.287V751.287Z" stroke="#3F3D56" stroke-miterlimit="10"/>
<path d="M33.0238 688.902C34.107 685.446 35.925 682.36 38.3104 679.93C40.6957 677.499 43.5716 675.802 46.6731 674.995L48.2345 685.726L51.1293 674.456C55.1486 674.525 59.045 676.069 62.2559 678.866C65.4667 681.663 67.826 685.567 68.993 690.016C70.16 694.464 70.0743 699.226 68.7484 703.615C67.4225 708.003 64.9249 711.791 61.6162 714.431C58.3076 717.071 54.359 718.426 50.3408 718.302C46.3225 718.178 42.4423 716.58 39.2605 713.739C36.0787 710.898 33.7599 706.961 32.6389 702.497C31.5179 698.033 31.6527 693.272 33.0238 688.902V688.902Z" fill="#57B894"/>
<path d="M34.0651 685.027C35.1483 681.571 36.9664 678.485 39.3517 676.055C41.737 673.625 44.613 671.928 47.7144 671.12L49.2758 681.851L52.1706 670.581C56.1899 670.65 60.0863 672.194 63.2972 674.991C66.508 677.788 68.8673 681.692 70.0343 686.141C71.2013 690.589 71.1156 695.351 69.7897 699.74C68.4638 704.128 65.9662 707.916 62.6575 710.556C59.3489 713.196 55.4004 714.552 51.3821 714.427C47.3638 714.303 43.4836 712.705 40.3018 709.864C37.12 707.023 34.8013 703.086 33.6802 698.622C32.5592 694.158 32.694 689.397 34.0651 685.027V685.027Z" stroke="#3F3D56" stroke-miterlimit="10"/>
<path d="M47.2321 804.83C51.6095 806.667 56.4181 806.576 60.7414 804.576C65.0648 802.575 68.6004 798.805 70.6746 793.984C72.7487 789.162 73.2162 783.627 71.9881 778.433C70.7599 773.238 67.9219 768.748 64.015 765.818L61.7907 774.479L60.2134 763.622C60.1978 763.613 60.1817 763.606 60.1651 763.6C57.8237 762.616 55.3374 762.174 52.8484 762.301C50.3594 762.428 47.9164 763.122 45.6591 764.341C43.4019 765.56 41.3745 767.282 39.6929 769.408C38.0113 771.534 36.7085 774.023 35.8589 776.731C35.0093 779.44 34.6295 782.315 34.7413 785.194C34.8532 788.072 35.4543 790.897 36.5106 793.506C37.5668 796.116 39.0573 798.459 40.897 800.402C42.7366 802.345 44.8893 803.85 47.2321 804.83V804.83Z" fill="#57B894"/>
<path d="M48.1343 800.905C52.5117 802.742 57.3204 802.651 61.6437 800.651C65.967 798.65 69.5027 794.88 71.5768 790.059C73.651 785.238 74.1185 779.702 72.8903 774.508C71.6622 769.313 68.8242 764.823 64.9173 761.893L62.6929 770.554L61.1156 759.697C61.1 759.688 61.0839 759.681 61.0674 759.675C58.7264 758.693 56.2412 758.254 53.7535 758.383C51.2657 758.512 48.8243 759.206 46.5686 760.426C42.0129 762.889 38.49 767.345 36.775 772.812C35.0599 778.28 35.2932 784.311 37.4235 789.579C39.5538 794.848 43.4066 798.922 48.1343 800.905V800.905Z" stroke="#3F3D56" stroke-miterlimit="10"/>
<path d="M27.4897 841.25C28.2424 846.203 30.4447 850.706 33.7274 854.004C37.0101 857.302 41.1735 859.194 45.5194 859.363C49.8652 859.532 54.1292 857.968 57.5963 854.933C61.0634 851.898 63.5227 847.577 64.5618 842.694C65.6008 837.811 65.1565 832.663 63.3032 828.114C61.4499 823.565 58.3005 819.891 54.383 817.709C50.4655 815.527 46.0183 814.968 41.7871 816.128C37.556 817.287 33.7982 820.094 31.144 824.077L39.593 838.784L28.0485 830.978C27.1534 834.301 26.9618 837.824 27.4897 841.25V841.25Z" fill="#57B894"/>
<path d="M28.2707 838.344C29.0234 843.297 31.2257 847.8 34.5084 851.097C37.7911 854.395 41.9545 856.287 46.3003 856.457C50.6462 856.626 54.9102 855.062 58.3773 852.027C61.8444 848.992 64.3037 844.671 65.3427 839.788C66.3818 834.905 65.9374 829.757 64.0841 825.208C62.2309 820.659 59.0814 816.985 55.1639 814.803C51.2464 812.62 46.7992 812.062 42.5681 813.221C38.3369 814.381 34.5791 817.188 31.925 821.171L40.374 835.877L28.8295 828.072C27.9344 831.395 27.7427 834.918 28.2707 838.344V838.344Z" stroke="#3F3D56" stroke-miterlimit="10"/>
<path d="M666.991 547.087C680.012 547.087 690.567 531.29 690.567 511.803C690.567 492.316 680.012 476.519 666.991 476.519C653.97 476.519 643.415 492.316 643.415 511.803C643.415 531.29 653.97 547.087 666.991 547.087Z" fill="#2F2E41"/>
<path d="M795.273 547.889C808.293 547.889 818.849 532.092 818.849 512.605C818.849 493.118 808.293 477.321 795.273 477.321C782.252 477.321 771.696 493.118 771.696 512.605C771.696 532.092 782.252 547.889 795.273 547.889Z" fill="#2F2E41"/>
<path d="M777.244 616.853C777.244 632.795 757.995 645.722 734.252 645.722C710.51 645.722 691.26 632.795 691.26 616.853C691.26 603.044 705.697 591.497 724.988 588.674C728.059 588.206 731.154 587.975 734.252 587.984C739.443 587.965 744.62 588.611 749.688 589.909C765.803 594.063 777.244 604.568 777.244 616.853Z" fill="#2F2E41"/>
<path d="M672.538 539.068C685.559 539.068 696.114 523.271 696.114 503.784C696.114 484.297 685.559 468.5 672.538 468.5C659.517 468.5 648.962 484.297 648.962 503.784C648.962 523.271 659.517 539.068 672.538 539.068Z" stroke="#3F3D56" stroke-miterlimit="10"/>
<path d="M800.82 539.87C813.841 539.87 824.396 524.073 824.396 504.586C824.396 485.099 813.841 469.302 800.82 469.302C787.799 469.302 777.244 485.099 777.244 504.586C777.244 524.073 787.799 539.87 800.82 539.87Z" stroke="#3F3D56" stroke-miterlimit="10"/>
<path d="M739.799 637.703C763.543 637.703 782.791 624.778 782.791 608.834C782.791 592.89 763.543 579.965 739.799 579.965C716.056 579.965 696.808 592.89 696.808 608.834C696.808 624.778 716.056 637.703 739.799 637.703Z" stroke="#3F3D56" stroke-miterlimit="10"/>
<path d="M750.201 592.315C750.212 594.332 749.557 596.277 748.37 597.755C747.809 598.463 747.128 599.029 746.369 599.417C745.61 599.806 744.79 600.009 743.96 600.013H730.092C728.383 599.944 726.767 599.096 725.597 597.653C724.428 596.211 723.8 594.291 723.851 592.315C723.844 590.751 724.24 589.22 724.988 587.918C728.057 587.419 731.153 587.173 734.252 587.183C739.449 587.163 744.63 587.852 749.687 589.235C750.03 590.214 750.204 591.26 750.201 592.315V592.315Z" fill="white"/>
<path d="M672.538 502.18C676.368 502.18 679.472 498.59 679.472 494.161C679.472 489.732 676.368 486.142 672.538 486.142C668.709 486.142 665.604 489.732 665.604 494.161C665.604 498.59 668.709 502.18 672.538 502.18Z" fill="white"/>
<path d="M801.513 502.18C805.343 502.18 808.448 498.59 808.448 494.161C808.448 489.732 805.343 486.142 801.513 486.142C797.684 486.142 794.579 489.732 794.579 494.161C794.579 498.59 797.684 502.18 801.513 502.18Z" fill="white"/>
<path opacity="0.3" d="M808.447 577.56C812.277 577.56 815.382 573.969 815.382 569.541C815.382 565.112 812.277 561.521 808.447 561.521C804.618 561.521 801.513 565.112 801.513 569.541C801.513 573.969 804.618 577.56 808.447 577.56Z" fill="#041C5B"/>
<path opacity="0.3" d="M639.254 577.56C643.084 577.56 646.188 573.969 646.188 569.541C646.188 565.112 643.084 561.521 639.254 561.521C635.425 561.521 632.32 565.112 632.32 569.541C632.32 573.969 635.425 577.56 639.254 577.56Z" fill="#041C5B"/>
</svg>
